<?xml version="1.0" encoding="UTF-8"?>
<svg xmlns="http://www.w3.org/2000/svg" width="860" height="753" viewBox="0 0 860 753" role="img" aria-label="Vectorized full body muscle diagram">
  <title>Full body muscle diagram - vectorized line art</title>
  <g id="muscle-line-art" fill="#111111" fill-rule="evenodd">
    <path d="M 205.0 44.0 L 203.0 46.0 L 199.0 46.0 L 198.0 48.0 L 196.0 48.0 L 195.0 49.0 L 196.0 51.0 L 194.0 53.0 L 194.0 57.0 L 191.0 61.0 L 191.0 63.0 L 190.0 64.0 L 190.0 80.0 L 191.0 81.0 L 192.0 88.0 L 189.0 91.0 L 189.0 95.0 L 190.0 96.0 L 191.0 103.0 L 193.0 105.0 L 193.0 106.0 L 195.0 107.0 L 196.0 109.0 L 196.0 111.0 L 197.0 112.0 L 197.0 116.0 L 198.0 117.0 L 198.0 119.0 L 197.0 120.0 L 197.0 127.0 L 196.0 128.0 L 196.0 131.0 L 195.0 132.0 L 195.0 135.0 L 194.0 136.0 L 194.0 138.0 L 191.0 142.0 L 191.0 143.0 L 189.0 145.0 L 188.0 145.0 L 185.0 148.0 L 173.0 154.0 L 171.0 154.0 L 170.0 155.0 L 156.0 155.0 L 155.0 156.0 L 151.0 156.0 L 150.0 157.0 L 148.0 157.0 L 147.0 158.0 L 145.0 158.0 L 144.0 159.0 L 142.0 159.0 L 138.0 161.0 L 131.0 167.0 L 129.0 172.0 L 127.0 174.0 L 127.0 176.0 L 125.0 180.0 L 125.0 183.0 L 124.0 184.0 L 124.0 193.0 L 123.0 194.0 L 123.0 196.0 L 124.0 197.0 L 124.0 204.0 L 125.0 205.0 L 125.0 209.0 L 126.0 211.0 L 120.0 219.0 L 117.0 225.0 L 116.0 230.0 L 115.0 231.0 L 115.0 235.0 L 114.0 236.0 L 114.0 240.0 L 113.0 241.0 L 113.0 248.0 L 112.0 249.0 L 112.0 254.0 L 110.0 255.0 L 102.0 263.0 L 102.0 264.0 L 99.0 267.0 L 99.0 268.0 L 95.0 273.0 L 92.0 279.0 L 92.0 281.0 L 90.0 284.0 L 90.0 286.0 L 88.0 289.0 L 86.0 298.0 L 84.0 301.0 L 84.0 303.0 L 82.0 306.0 L 82.0 308.0 L 79.0 313.0 L 79.0 315.0 L 77.0 318.0 L 77.0 320.0 L 74.0 326.0 L 74.0 328.0 L 72.0 331.0 L 72.0 333.0 L 69.0 336.0 L 68.0 339.0 L 64.0 344.0 L 60.0 353.0 L 57.0 356.0 L 53.0 358.0 L 51.0 358.0 L 49.0 360.0 L 45.0 362.0 L 42.0 365.0 L 41.0 365.0 L 34.0 372.0 L 31.0 373.0 L 31.0 377.0 L 32.0 378.0 L 39.0 378.0 L 40.0 377.0 L 42.0 377.0 L 44.0 375.0 L 45.0 376.0 L 45.0 380.0 L 40.0 386.0 L 36.0 394.0 L 36.0 396.0 L 35.0 397.0 L 35.0 400.0 L 34.0 402.0 L 35.0 403.0 L 35.0 405.0 L 39.0 405.0 L 40.0 406.0 L 40.0 409.0 L 43.0 411.0 L 47.0 408.0 L 49.0 410.0 L 53.0 410.0 L 56.0 406.0 L 60.0 398.0 L 61.0 399.0 L 60.0 404.0 L 62.0 406.0 L 64.0 406.0 L 65.0 405.0 L 65.0 404.0 L 69.0 399.0 L 70.0 397.0 L 70.0 395.0 L 71.0 394.0 L 71.0 392.0 L 73.0 390.0 L 73.0 388.0 L 75.0 385.0 L 75.0 383.0 L 77.0 379.0 L 77.0 375.0 L 78.0 374.0 L 78.0 368.0 L 79.0 367.0 L 80.0 360.0 L 83.0 354.0 L 88.0 348.0 L 89.0 346.0 L 89.0 344.0 L 92.0 338.0 L 97.0 332.0 L 97.0 331.0 L 101.0 327.0 L 101.0 326.0 L 113.0 314.0 L 114.0 314.0 L 119.0 309.0 L 120.0 309.0 L 124.0 305.0 L 125.0 305.0 L 132.0 297.0 L 133.0 294.0 L 135.0 292.0 L 135.0 290.0 L 137.0 287.0 L 137.0 285.0 L 139.0 281.0 L 139.0 278.0 L 140.0 277.0 L 140.0 274.0 L 141.0 273.0 L 141.0 268.0 L 142.0 267.0 L 142.0 265.0 L 148.0 258.0 L 150.0 254.0 L 151.0 249.0 L 152.0 248.0 L 152.0 245.0 L 154.0 241.0 L 154.0 238.0 L 156.0 237.0 L 158.0 239.0 L 162.0 247.0 L 162.0 249.0 L 163.0 250.0 L 163.0 253.0 L 164.0 254.0 L 164.0 277.0 L 163.0 278.0 L 163.0 285.0 L 162.0 286.0 L 162.0 292.0 L 161.0 293.0 L 161.0 303.0 L 160.0 304.0 L 160.0 318.0 L 161.0 319.0 L 161.0 324.0 L 160.0 325.0 L 160.0 327.0 L 159.0 328.0 L 158.0 333.0 L 156.0 336.0 L 155.0 341.0 L 153.0 344.0 L 153.0 346.0 L 152.0 347.0 L 152.0 349.0 L 151.0 350.0 L 151.0 352.0 L 149.0 356.0 L 149.0 359.0 L 148.0 360.0 L 148.0 363.0 L 147.0 364.0 L 147.0 368.0 L 146.0 369.0 L 146.0 374.0 L 145.0 375.0 L 145.0 381.0 L 144.0 382.0 L 144.0 391.0 L 143.0 392.0 L 143.0 403.0 L 142.0 404.0 L 142.0 436.0 L 143.0 437.0 L 143.0 446.0 L 144.0 447.0 L 144.0 451.0 L 145.0 452.0 L 145.0 455.0 L 146.0 456.0 L 146.0 458.0 L 147.0 459.0 L 147.0 461.0 L 149.0 465.0 L 150.0 472.0 L 151.0 473.0 L 151.0 493.0 L 150.0 494.0 L 150.0 502.0 L 149.0 503.0 L 149.0 512.0 L 145.0 520.0 L 145.0 527.0 L 144.0 528.0 L 144.0 535.0 L 143.0 536.0 L 143.0 540.0 L 142.0 541.0 L 142.0 545.0 L 141.0 546.0 L 141.0 550.0 L 140.0 551.0 L 140.0 554.0 L 139.0 555.0 L 139.0 559.0 L 138.0 560.0 L 138.0 565.0 L 137.0 566.0 L 137.0 586.0 L 139.0 590.0 L 139.0 595.0 L 140.0 596.0 L 140.0 600.0 L 141.0 601.0 L 141.0 605.0 L 142.0 606.0 L 142.0 610.0 L 143.0 611.0 L 143.0 615.0 L 144.0 616.0 L 144.0 621.0 L 145.0 622.0 L 145.0 630.0 L 146.0 631.0 L 146.0 635.0 L 147.0 636.0 L 147.0 641.0 L 142.0 651.0 L 142.0 653.0 L 139.0 658.0 L 139.0 660.0 L 138.0 661.0 L 138.0 663.0 L 137.0 664.0 L 136.0 669.0 L 133.0 675.0 L 127.0 682.0 L 125.0 686.0 L 125.0 694.0 L 129.0 697.0 L 132.0 697.0 L 136.0 699.0 L 139.0 699.0 L 140.0 700.0 L 145.0 700.0 L 146.0 701.0 L 152.0 701.0 L 153.0 700.0 L 156.0 700.0 L 158.0 699.0 L 161.0 696.0 L 164.0 690.0 L 164.0 686.0 L 165.0 685.0 L 165.0 678.0 L 168.0 673.0 L 168.0 671.0 L 170.0 668.0 L 170.0 665.0 L 171.0 664.0 L 170.0 662.0 L 170.0 657.0 L 169.0 656.0 L 169.0 652.0 L 168.0 651.0 L 168.0 647.0 L 167.0 646.0 L 167.0 637.0 L 166.0 636.0 L 166.0 628.0 L 167.0 627.0 L 167.0 618.0 L 168.0 617.0 L 169.0 612.0 L 172.0 607.0 L 172.0 605.0 L 174.0 602.0 L 174.0 600.0 L 176.0 597.0 L 176.0 595.0 L 177.0 594.0 L 177.0 592.0 L 178.0 591.0 L 178.0 589.0 L 180.0 585.0 L 180.0 581.0 L 182.0 577.0 L 182.0 574.0 L 183.0 573.0 L 184.0 566.0 L 185.0 565.0 L 185.0 559.0 L 186.0 558.0 L 186.0 544.0 L 187.0 543.0 L 187.0 535.0 L 188.0 534.0 L 188.0 520.0 L 187.0 519.0 L 188.0 518.0 L 188.0 516.0 L 190.0 513.0 L 190.0 511.0 L 194.0 503.0 L 194.0 499.0 L 195.0 498.0 L 195.0 489.0 L 196.0 488.0 L 196.0 480.0 L 197.0 479.0 L 197.0 477.0 L 198.0 476.0 L 198.0 474.0 L 199.0 473.0 L 199.0 471.0 L 200.0 470.0 L 200.0 468.0 L 202.0 464.0 L 202.0 461.0 L 204.0 457.0 L 204.0 454.0 L 206.0 450.0 L 206.0 446.0 L 207.0 445.0 L 207.0 440.0 L 208.0 439.0 L 208.0 430.0 L 209.0 429.0 L 209.0 424.0 L 210.0 423.0 L 210.0 418.0 L 211.0 417.0 L 211.0 412.0 L 212.0 411.0 L 212.0 406.0 L 213.0 405.0 L 213.0 396.0 L 214.0 395.0 L 214.0 385.0 L 213.0 384.0 L 213.0 379.0 L 212.0 378.0 L 212.0 376.0 L 213.0 375.0 L 215.0 375.0 L 216.0 376.0 L 223.0 376.0 L 224.0 375.0 L 225.0 376.0 L 225.0 378.0 L 224.0 379.0 L 224.0 384.0 L 223.0 385.0 L 223.0 399.0 L 224.0 400.0 L 224.0 407.0 L 225.0 408.0 L 225.0 412.0 L 226.0 413.0 L 226.0 418.0 L 227.0 419.0 L 227.0 423.0 L 228.0 424.0 L 228.0 427.0 L 229.0 428.0 L 229.0 437.0 L 230.0 438.0 L 230.0 446.0 L 231.0 447.0 L 231.0 451.0 L 232.0 452.0 L 232.0 455.0 L 233.0 456.0 L 233.0 458.0 L 234.0 459.0 L 234.0 461.0 L 236.0 465.0 L 236.0 468.0 L 238.0 472.0 L 238.0 475.0 L 241.0 481.0 L 241.0 494.0 L 242.0 495.0 L 242.0 500.0 L 243.0 501.0 L 243.0 504.0 L 244.0 505.0 L 244.0 507.0 L 245.0 508.0 L 245.0 510.0 L 246.0 511.0 L 247.0 516.0 L 249.0 519.0 L 249.0 535.0 L 250.0 536.0 L 250.0 545.0 L 251.0 546.0 L 251.0 557.0 L 252.0 558.0 L 252.0 567.0 L 253.0 568.0 L 253.0 573.0 L 254.0 574.0 L 254.0 577.0 L 255.0 578.0 L 255.0 581.0 L 256.0 582.0 L 256.0 585.0 L 257.0 586.0 L 257.0 588.0 L 258.0 589.0 L 259.0 594.0 L 266.0 608.0 L 266.0 610.0 L 267.0 611.0 L 267.0 613.0 L 269.0 617.0 L 269.0 621.0 L 270.0 622.0 L 270.0 645.0 L 269.0 646.0 L 269.0 650.0 L 268.0 651.0 L 268.0 654.0 L 267.0 655.0 L 267.0 659.0 L 266.0 660.0 L 266.0 665.0 L 269.0 671.0 L 269.0 673.0 L 271.0 675.0 L 271.0 677.0 L 272.0 678.0 L 272.0 686.0 L 273.0 687.0 L 274.0 692.0 L 275.0 694.0 L 279.0 698.0 L 281.0 698.0 L 282.0 699.0 L 292.0 699.0 L 293.0 698.0 L 298.0 698.0 L 299.0 697.0 L 309.0 697.0 L 312.0 693.0 L 312.0 688.0 L 310.0 684.0 L 306.0 680.0 L 306.0 679.0 L 302.0 674.0 L 299.0 668.0 L 299.0 666.0 L 298.0 665.0 L 298.0 662.0 L 297.0 661.0 L 297.0 659.0 L 296.0 658.0 L 296.0 656.0 L 295.0 655.0 L 295.0 653.0 L 294.0 652.0 L 293.0 647.0 L 290.0 641.0 L 290.0 632.0 L 291.0 631.0 L 291.0 628.0 L 292.0 627.0 L 292.0 624.0 L 293.0 623.0 L 293.0 620.0 L 294.0 619.0 L 294.0 615.0 L 295.0 614.0 L 295.0 609.0 L 296.0 608.0 L 296.0 603.0 L 297.0 602.0 L 297.0 597.0 L 298.0 596.0 L 298.0 582.0 L 299.0 581.0 L 299.0 569.0 L 298.0 568.0 L 298.0 560.0 L 297.0 559.0 L 297.0 554.0 L 296.0 553.0 L 296.0 549.0 L 295.0 548.0 L 295.0 544.0 L 294.0 543.0 L 294.0 538.0 L 293.0 537.0 L 293.0 533.0 L 292.0 532.0 L 291.0 523.0 L 290.0 522.0 L 290.0 519.0 L 289.0 518.0 L 289.0 514.0 L 288.0 513.0 L 288.0 505.0 L 287.0 504.0 L 287.0 498.0 L 286.0 497.0 L 286.0 489.0 L 285.0 488.0 L 285.0 481.0 L 286.0 480.0 L 286.0 474.0 L 287.0 473.0 L 288.0 464.0 L 289.0 463.0 L 289.0 461.0 L 291.0 457.0 L 291.0 454.0 L 292.0 453.0 L 292.0 449.0 L 293.0 448.0 L 293.0 441.0 L 294.0 440.0 L 294.0 431.0 L 295.0 430.0 L 295.0 414.0 L 294.0 413.0 L 294.0 400.0 L 293.0 399.0 L 293.0 388.0 L 292.0 387.0 L 292.0 382.0 L 291.0 381.0 L 291.0 376.0 L 290.0 375.0 L 290.0 371.0 L 289.0 370.0 L 289.0 366.0 L 288.0 365.0 L 288.0 362.0 L 287.0 361.0 L 287.0 358.0 L 286.0 357.0 L 285.0 350.0 L 284.0 349.0 L 284.0 347.0 L 283.0 346.0 L 283.0 344.0 L 282.0 343.0 L 281.0 338.0 L 279.0 335.0 L 279.0 333.0 L 278.0 332.0 L 278.0 330.0 L 277.0 329.0 L 277.0 327.0 L 275.0 323.0 L 276.0 322.0 L 276.0 295.0 L 275.0 294.0 L 275.0 289.0 L 274.0 288.0 L 274.0 281.0 L 273.0 280.0 L 273.0 270.0 L 272.0 269.0 L 272.0 259.0 L 273.0 258.0 L 273.0 251.0 L 274.0 250.0 L 274.0 248.0 L 279.0 238.0 L 281.0 236.0 L 283.0 240.0 L 284.0 247.0 L 286.0 250.0 L 287.0 255.0 L 289.0 259.0 L 295.0 266.0 L 295.0 271.0 L 296.0 272.0 L 296.0 276.0 L 297.0 277.0 L 297.0 280.0 L 298.0 281.0 L 299.0 286.0 L 301.0 289.0 L 301.0 291.0 L 303.0 295.0 L 309.0 302.0 L 309.0 303.0 L 310.0 303.0 L 314.0 307.0 L 315.0 307.0 L 320.0 312.0 L 321.0 312.0 L 326.0 317.0 L 327.0 317.0 L 328.0 319.0 L 330.0 320.0 L 330.0 321.0 L 337.0 328.0 L 337.0 329.0 L 341.0 333.0 L 341.0 334.0 L 345.0 339.0 L 347.0 343.0 L 347.0 345.0 L 348.0 346.0 L 349.0 351.0 L 352.0 355.0 L 354.0 359.0 L 355.0 364.0 L 356.0 365.0 L 356.0 370.0 L 357.0 371.0 L 357.0 377.0 L 358.0 378.0 L 358.0 381.0 L 360.0 384.0 L 360.0 386.0 L 362.0 390.0 L 364.0 392.0 L 365.0 397.0 L 367.0 401.0 L 369.0 403.0 L 369.0 404.0 L 371.0 406.0 L 373.0 406.0 L 376.0 402.0 L 379.0 406.0 L 379.0 407.0 L 382.0 410.0 L 384.0 411.0 L 388.0 408.0 L 391.0 411.0 L 394.0 410.0 L 395.0 409.0 L 395.0 405.0 L 396.0 404.0 L 397.0 405.0 L 399.0 405.0 L 400.0 404.0 L 400.0 397.0 L 398.0 394.0 L 398.0 392.0 L 395.0 386.0 L 390.0 380.0 L 390.0 377.0 L 391.0 376.0 L 393.0 376.0 L 394.0 377.0 L 403.0 378.0 L 405.0 376.0 L 404.0 375.0 L 405.0 374.0 L 398.0 368.0 L 397.0 368.0 L 393.0 364.0 L 390.0 363.0 L 388.0 361.0 L 386.0 361.0 L 384.0 360.0 L 382.0 358.0 L 378.0 356.0 L 375.0 353.0 L 374.0 350.0 L 370.0 345.0 L 370.0 343.0 L 368.0 341.0 L 365.0 335.0 L 365.0 333.0 L 362.0 327.0 L 361.0 322.0 L 359.0 319.0 L 358.0 314.0 L 356.0 311.0 L 356.0 309.0 L 352.0 301.0 L 352.0 299.0 L 351.0 298.0 L 351.0 296.0 L 350.0 295.0 L 350.0 293.0 L 349.0 292.0 L 348.0 287.0 L 346.0 284.0 L 346.0 282.0 L 340.0 270.0 L 338.0 268.0 L 338.0 267.0 L 331.0 260.0 L 331.0 259.0 L 324.0 253.0 L 324.0 243.0 L 323.0 242.0 L 323.0 237.0 L 322.0 236.0 L 321.0 229.0 L 320.0 228.0 L 320.0 226.0 L 314.0 214.0 L 311.0 211.0 L 311.0 208.0 L 312.0 207.0 L 312.0 202.0 L 313.0 201.0 L 313.0 186.0 L 312.0 185.0 L 312.0 181.0 L 311.0 180.0 L 310.0 175.0 L 306.0 167.0 L 303.0 164.0 L 302.0 164.0 L 297.0 160.0 L 295.0 160.0 L 292.0 158.0 L 290.0 158.0 L 286.0 156.0 L 282.0 156.0 L 281.0 155.0 L 270.0 155.0 L 269.0 156.0 L 266.0 154.0 L 264.0 154.0 L 252.0 148.0 L 250.0 146.0 L 249.0 146.0 L 244.0 141.0 L 243.0 139.0 L 243.0 137.0 L 242.0 136.0 L 242.0 133.0 L 241.0 132.0 L 241.0 129.0 L 240.0 128.0 L 239.0 123.0 L 240.0 122.0 L 240.0 116.0 L 241.0 115.0 L 241.0 111.0 L 247.0 105.0 L 248.0 103.0 L 248.0 90.0 L 247.0 89.0 L 247.0 81.0 L 248.0 80.0 L 248.0 69.0 L 247.0 68.0 L 246.0 63.0 L 243.0 57.0 L 242.0 57.0 L 241.0 55.0 L 240.0 55.0 L 235.0 50.0 L 233.0 49.0 L 231.0 49.0 L 230.0 48.0 L 228.0 48.0 L 225.0 46.0 L 221.0 46.0 L 220.0 45.0 L 215.0 45.0 L 214.0 44.0 L 210.0 44.0 L 209.0 45.0 L 206.0 45.0 Z
M 291.0 537.0 L 292.0 538.0 L 292.0 542.0 L 293.0 543.0 L 293.0 547.0 L 294.0 548.0 L 294.0 554.0 L 295.0 555.0 L 295.0 559.0 L 296.0 560.0 L 296.0 575.0 L 297.0 576.0 L 297.0 585.0 L 296.0 586.0 L 296.0 595.0 L 295.0 596.0 L 295.0 600.0 L 294.0 601.0 L 294.0 605.0 L 293.0 606.0 L 293.0 610.0 L 292.0 611.0 L 292.0 616.0 L 291.0 617.0 L 291.0 621.0 L 290.0 622.0 L 290.0 626.0 L 289.0 627.0 L 289.0 631.0 L 288.0 632.0 L 288.0 647.0 L 290.0 646.0 L 291.0 647.0 L 291.0 649.0 L 292.0 650.0 L 292.0 652.0 L 293.0 653.0 L 293.0 655.0 L 294.0 656.0 L 294.0 658.0 L 296.0 662.0 L 297.0 669.0 L 300.0 675.0 L 304.0 680.0 L 304.0 681.0 L 310.0 688.0 L 310.0 692.0 L 308.0 694.0 L 305.0 694.0 L 304.0 695.0 L 298.0 695.0 L 297.0 696.0 L 288.0 696.0 L 287.0 697.0 L 283.0 697.0 L 282.0 696.0 L 280.0 696.0 L 277.0 693.0 L 275.0 689.0 L 275.0 686.0 L 274.0 685.0 L 274.0 677.0 L 268.0 665.0 L 268.0 659.0 L 269.0 658.0 L 269.0 655.0 L 270.0 654.0 L 270.0 652.0 L 271.0 651.0 L 271.0 647.0 L 272.0 646.0 L 272.0 636.0 L 273.0 635.0 L 274.0 636.0 L 278.0 634.0 L 278.0 628.0 L 279.0 627.0 L 280.0 618.0 L 281.0 617.0 L 281.0 614.0 L 282.0 613.0 L 282.0 610.0 L 283.0 609.0 L 283.0 606.0 L 284.0 605.0 L 284.0 602.0 L 285.0 601.0 L 285.0 597.0 L 286.0 596.0 L 286.0 591.0 L 287.0 590.0 L 287.0 582.0 L 288.0 581.0 L 288.0 571.0 L 289.0 570.0 L 289.0 541.0 Z
M 146.0 534.0 L 148.0 538.0 L 148.0 578.0 L 149.0 579.0 L 149.0 587.0 L 150.0 588.0 L 150.0 594.0 L 151.0 595.0 L 151.0 599.0 L 152.0 600.0 L 153.0 607.0 L 154.0 608.0 L 154.0 610.0 L 155.0 611.0 L 155.0 614.0 L 156.0 615.0 L 156.0 619.0 L 157.0 620.0 L 157.0 625.0 L 158.0 626.0 L 158.0 630.0 L 159.0 631.0 L 159.0 633.0 L 160.0 634.0 L 162.0 634.0 L 163.0 633.0 L 165.0 634.0 L 164.0 635.0 L 165.0 637.0 L 165.0 645.0 L 166.0 646.0 L 166.0 650.0 L 167.0 651.0 L 167.0 657.0 L 168.0 658.0 L 168.0 662.0 L 169.0 663.0 L 168.0 665.0 L 168.0 667.0 L 166.0 671.0 L 164.0 673.0 L 164.0 675.0 L 163.0 676.0 L 163.0 685.0 L 162.0 686.0 L 161.0 691.0 L 158.0 694.0 L 158.0 695.0 L 155.0 697.0 L 145.0 697.0 L 144.0 696.0 L 138.0 696.0 L 137.0 695.0 L 134.0 695.0 L 133.0 694.0 L 129.0 694.0 L 127.0 692.0 L 127.0 687.0 L 133.0 680.0 L 133.0 679.0 L 135.0 677.0 L 139.0 669.0 L 140.0 662.0 L 143.0 656.0 L 143.0 654.0 L 146.0 648.0 L 147.0 647.0 L 148.0 648.0 L 149.0 647.0 L 149.0 637.0 L 148.0 636.0 L 148.0 629.0 L 147.0 628.0 L 147.0 624.0 L 146.0 623.0 L 146.0 618.0 L 145.0 617.0 L 145.0 611.0 L 144.0 610.0 L 143.0 601.0 L 142.0 600.0 L 142.0 597.0 L 141.0 596.0 L 141.0 591.0 L 140.0 590.0 L 140.0 583.0 L 139.0 582.0 L 139.0 568.0 L 140.0 567.0 L 140.0 560.0 L 141.0 559.0 L 141.0 555.0 L 142.0 554.0 L 142.0 550.0 L 143.0 549.0 L 143.0 546.0 L 144.0 545.0 L 144.0 540.0 L 145.0 539.0 L 145.0 535.0 Z
M 252.0 528.0 L 261.0 546.0 L 261.0 548.0 L 262.0 549.0 L 262.0 551.0 L 263.0 552.0 L 263.0 554.0 L 264.0 555.0 L 265.0 560.0 L 268.0 566.0 L 269.0 573.0 L 270.0 574.0 L 270.0 580.0 L 271.0 581.0 L 271.0 588.0 L 272.0 589.0 L 272.0 601.0 L 273.0 602.0 L 273.0 606.0 L 272.0 607.0 L 273.0 608.0 L 273.0 619.0 L 272.0 620.0 L 271.0 619.0 L 271.0 617.0 L 270.0 616.0 L 270.0 614.0 L 269.0 613.0 L 268.0 608.0 L 266.0 605.0 L 266.0 603.0 L 262.0 595.0 L 262.0 593.0 L 261.0 592.0 L 261.0 590.0 L 260.0 589.0 L 260.0 587.0 L 258.0 583.0 L 258.0 580.0 L 257.0 579.0 L 256.0 572.0 L 255.0 571.0 L 255.0 567.0 L 254.0 566.0 L 254.0 561.0 L 253.0 560.0 L 253.0 547.0 L 252.0 546.0 L 252.0 532.0 L 251.0 531.0 L 251.0 529.0 Z
M 185.0 527.0 L 186.0 528.0 L 186.0 537.0 L 185.0 538.0 L 185.0 547.0 L 184.0 548.0 L 184.0 559.0 L 183.0 560.0 L 182.0 569.0 L 181.0 570.0 L 181.0 573.0 L 180.0 574.0 L 180.0 578.0 L 178.0 582.0 L 178.0 585.0 L 177.0 586.0 L 177.0 588.0 L 176.0 589.0 L 176.0 591.0 L 175.0 592.0 L 174.0 597.0 L 172.0 600.0 L 172.0 602.0 L 170.0 605.0 L 170.0 607.0 L 167.0 612.0 L 167.0 614.0 L 166.0 615.0 L 166.0 618.0 L 165.0 619.0 L 164.0 618.0 L 164.0 606.0 L 165.0 605.0 L 165.0 590.0 L 166.0 589.0 L 166.0 581.0 L 167.0 580.0 L 167.0 574.0 L 168.0 573.0 L 169.0 564.0 L 170.0 563.0 L 170.0 561.0 L 171.0 560.0 L 171.0 558.0 L 173.0 554.0 L 173.0 551.0 L 175.0 549.0 L 177.0 545.0 L 177.0 543.0 Z
M 274.0 505.0 L 277.0 505.0 L 283.0 511.0 L 285.0 512.0 L 285.0 513.0 L 287.0 515.0 L 287.0 522.0 L 288.0 523.0 L 288.0 559.0 L 287.0 560.0 L 287.0 577.0 L 286.0 578.0 L 286.0 584.0 L 285.0 585.0 L 285.0 589.0 L 284.0 590.0 L 284.0 595.0 L 283.0 596.0 L 283.0 600.0 L 282.0 601.0 L 282.0 605.0 L 281.0 606.0 L 280.0 615.0 L 279.0 616.0 L 279.0 619.0 L 278.0 620.0 L 278.0 624.0 L 277.0 625.0 L 277.0 629.0 L 276.0 630.0 L 275.0 629.0 L 275.0 608.0 L 274.0 607.0 L 274.0 594.0 L 273.0 593.0 L 273.0 584.0 L 272.0 583.0 L 272.0 576.0 L 271.0 575.0 L 271.0 571.0 L 270.0 570.0 L 270.0 567.0 L 269.0 566.0 L 269.0 564.0 L 268.0 563.0 L 268.0 561.0 L 267.0 560.0 L 267.0 558.0 L 266.0 557.0 L 266.0 555.0 L 264.0 551.0 L 264.0 548.0 L 253.0 526.0 L 253.0 523.0 L 252.0 522.0 L 252.0 521.0 L 255.0 519.0 L 260.0 519.0 L 261.0 518.0 L 264.0 518.0 L 266.0 517.0 L 268.0 515.0 L 269.0 512.0 L 271.0 510.0 L 272.0 507.0 Z
M 159.0 505.0 L 163.0 505.0 L 166.0 509.0 L 168.0 514.0 L 171.0 517.0 L 173.0 518.0 L 175.0 518.0 L 176.0 519.0 L 180.0 519.0 L 181.0 520.0 L 184.0 520.0 L 185.0 521.0 L 184.0 523.0 L 184.0 525.0 L 175.0 542.0 L 174.0 547.0 L 171.0 552.0 L 171.0 554.0 L 169.0 558.0 L 169.0 561.0 L 168.0 562.0 L 168.0 565.0 L 167.0 566.0 L 167.0 569.0 L 166.0 570.0 L 166.0 573.0 L 165.0 574.0 L 165.0 579.0 L 164.0 580.0 L 164.0 589.0 L 163.0 590.0 L 163.0 612.0 L 162.0 613.0 L 162.0 628.0 L 161.0 629.0 L 160.0 628.0 L 160.0 625.0 L 159.0 624.0 L 159.0 619.0 L 158.0 618.0 L 157.0 611.0 L 156.0 610.0 L 156.0 608.0 L 154.0 604.0 L 154.0 601.0 L 153.0 600.0 L 153.0 596.0 L 152.0 595.0 L 152.0 592.0 L 151.0 591.0 L 151.0 583.0 L 150.0 582.0 L 150.0 572.0 L 149.0 571.0 L 149.0 517.0 L 150.0 516.0 L 150.0 514.0 L 152.0 513.0 L 153.0 511.0 Z
M 287.0 457.0 L 288.0 458.0 L 288.0 461.0 L 287.0 462.0 L 287.0 464.0 L 285.0 468.0 L 285.0 471.0 L 284.0 472.0 L 284.0 482.0 L 283.0 483.0 L 284.0 485.0 L 284.0 495.0 L 285.0 496.0 L 285.0 502.0 L 286.0 503.0 L 286.0 508.0 L 284.0 509.0 L 281.0 506.0 L 281.0 505.0 L 279.0 504.0 L 279.0 503.0 L 277.0 501.0 L 275.0 497.0 L 275.0 494.0 L 274.0 494.0 L 273.0 496.0 L 276.0 502.0 L 272.0 504.0 L 268.0 512.0 L 264.0 516.0 L 259.0 517.0 L 257.0 514.0 L 257.0 509.0 L 256.0 508.0 L 256.0 499.0 L 257.0 497.0 L 255.0 497.0 L 255.0 513.0 L 256.0 514.0 L 256.0 516.0 L 251.0 519.0 L 250.0 518.0 L 250.0 516.0 L 249.0 515.0 L 248.0 510.0 L 246.0 507.0 L 246.0 505.0 L 244.0 501.0 L 244.0 495.0 L 243.0 494.0 L 243.0 491.0 L 249.0 488.0 L 252.0 485.0 L 253.0 485.0 L 256.0 482.0 L 257.0 482.0 L 266.0 470.0 L 270.0 478.0 L 273.0 481.0 L 276.0 481.0 L 280.0 474.0 L 280.0 472.0 L 282.0 470.0 L 283.0 465.0 Z
M 288.0 454.0 L 289.0 455.0 L 289.0 457.0 L 288.0 458.0 L 287.0 457.0 L 287.0 455.0 Z
M 149.0 454.0 L 150.0 455.0 L 150.0 457.0 L 151.0 458.0 L 151.0 460.0 L 152.0 461.0 L 152.0 463.0 L 153.0 464.0 L 154.0 469.0 L 156.0 471.0 L 156.0 473.0 L 161.0 481.0 L 163.0 481.0 L 166.0 479.0 L 168.0 475.0 L 168.0 473.0 L 169.0 472.0 L 169.0 469.0 L 170.0 468.0 L 173.0 472.0 L 176.0 478.0 L 184.0 486.0 L 194.0 491.0 L 193.0 492.0 L 194.0 493.0 L 193.0 494.0 L 193.0 500.0 L 192.0 501.0 L 191.0 506.0 L 189.0 509.0 L 189.0 511.0 L 185.0 518.0 L 183.0 518.0 L 180.0 516.0 L 181.0 515.0 L 181.0 510.0 L 182.0 509.0 L 182.0 500.0 L 181.0 499.0 L 181.0 497.0 L 180.0 497.0 L 180.0 512.0 L 179.0 513.0 L 179.0 516.0 L 178.0 517.0 L 176.0 516.0 L 174.0 516.0 L 170.0 512.0 L 167.0 505.0 L 161.0 502.0 L 163.0 500.0 L 163.0 498.0 L 164.0 497.0 L 164.0 494.0 L 163.0 493.0 L 162.0 494.0 L 162.0 496.0 L 161.0 497.0 L 161.0 499.0 L 160.0 501.0 L 154.0 507.0 L 154.0 508.0 L 152.0 510.0 L 151.0 509.0 L 151.0 500.0 L 152.0 499.0 L 152.0 493.0 L 153.0 492.0 L 153.0 474.0 L 152.0 473.0 L 152.0 469.0 L 151.0 468.0 L 151.0 465.0 L 150.0 464.0 L 150.0 462.0 L 148.0 458.0 L 148.0 455.0 Z
M 147.0 453.0 L 148.0 452.0 L 149.0 454.0 L 148.0 455.0 Z
M 288.0 452.0 L 289.0 451.0 L 290.0 453.0 L 289.0 454.0 Z
M 146.0 450.0 L 147.0 449.0 L 148.0 451.0 L 147.0 452.0 Z
M 249.0 433.0 L 250.0 434.0 L 250.0 437.0 L 251.0 438.0 L 251.0 442.0 L 252.0 443.0 L 252.0 449.0 L 253.0 450.0 L 253.0 455.0 L 254.0 456.0 L 254.0 461.0 L 255.0 462.0 L 255.0 472.0 L 256.0 473.0 L 256.0 480.0 L 253.0 483.0 L 252.0 483.0 L 247.0 487.0 L 244.0 488.0 L 243.0 487.0 L 243.0 480.0 L 242.0 479.0 L 242.0 477.0 L 243.0 476.0 L 242.0 474.0 L 242.0 467.0 L 243.0 466.0 L 243.0 460.0 L 244.0 459.0 L 244.0 454.0 L 245.0 453.0 L 245.0 447.0 L 246.0 446.0 L 246.0 442.0 L 247.0 441.0 L 247.0 438.0 L 248.0 437.0 L 248.0 434.0 Z
M 188.0 433.0 L 189.0 434.0 L 189.0 438.0 L 190.0 439.0 L 190.0 444.0 L 191.0 445.0 L 191.0 450.0 L 192.0 451.0 L 192.0 458.0 L 193.0 459.0 L 193.0 466.0 L 194.0 467.0 L 194.0 487.0 L 193.0 488.0 L 188.0 486.0 L 181.0 480.0 L 181.0 470.0 L 182.0 469.0 L 182.0 460.0 L 183.0 459.0 L 183.0 454.0 L 184.0 453.0 L 184.0 448.0 L 185.0 447.0 L 185.0 442.0 L 186.0 441.0 L 186.0 436.0 Z
M 370.0 401.0 L 371.0 400.0 L 372.0 401.0 L 371.0 402.0 Z
M 375.0 399.0 L 376.0 400.0 L 376.0 402.0 L 375.0 403.0 L 374.0 402.0 L 374.0 400.0 Z
M 63.0 400.0 L 64.0 399.0 L 65.0 401.0 L 64.0 402.0 Z
M 397.0 397.0 L 398.0 398.0 L 398.0 400.0 L 397.0 401.0 L 396.0 400.0 L 396.0 398.0 Z
M 373.0 398.0 L 374.0 397.0 L 375.0 399.0 L 374.0 400.0 Z
M 60.0 398.0 L 61.0 397.0 L 62.0 398.0 L 61.0 399.0 Z
M 395.0 396.0 L 396.0 395.0 L 397.0 397.0 L 396.0 398.0 Z
M 372.0 396.0 L 373.0 395.0 L 374.0 396.0 L 373.0 397.0 Z
M 61.0 394.0 L 62.0 393.0 L 63.0 395.0 L 62.0 396.0 Z
M 62.0 392.0 L 63.0 391.0 L 64.0 392.0 L 63.0 393.0 Z
M 285.0 384.0 L 289.0 386.0 L 291.0 388.0 L 291.0 395.0 L 292.0 396.0 L 292.0 411.0 L 293.0 412.0 L 293.0 431.0 L 292.0 432.0 L 292.0 437.0 L 291.0 438.0 L 291.0 441.0 L 290.0 442.0 L 289.0 447.0 L 287.0 450.0 L 286.0 455.0 L 284.0 458.0 L 284.0 460.0 L 282.0 463.0 L 281.0 468.0 L 276.0 478.0 L 274.0 479.0 L 270.0 475.0 L 270.0 473.0 L 269.0 472.0 L 269.0 468.0 L 268.0 466.0 L 273.0 456.0 L 273.0 454.0 L 274.0 453.0 L 274.0 451.0 L 275.0 450.0 L 276.0 445.0 L 279.0 440.0 L 279.0 438.0 L 280.0 437.0 L 280.0 434.0 L 282.0 430.0 L 282.0 424.0 L 283.0 423.0 L 283.0 417.0 L 284.0 416.0 L 283.0 415.0 L 284.0 414.0 L 284.0 406.0 L 285.0 405.0 L 285.0 394.0 L 284.0 393.0 L 284.0 385.0 Z
M 283.0 384.0 L 284.0 383.0 L 285.0 384.0 L 284.0 385.0 Z
M 152.0 383.0 L 153.0 384.0 L 153.0 388.0 L 152.0 389.0 L 152.0 409.0 L 153.0 410.0 L 153.0 419.0 L 154.0 420.0 L 154.0 426.0 L 155.0 427.0 L 155.0 432.0 L 156.0 433.0 L 156.0 435.0 L 157.0 436.0 L 158.0 441.0 L 160.0 444.0 L 161.0 449.0 L 168.0 463.0 L 168.0 470.0 L 167.0 471.0 L 167.0 474.0 L 162.0 479.0 L 157.0 471.0 L 157.0 469.0 L 155.0 466.0 L 154.0 461.0 L 150.0 453.0 L 150.0 451.0 L 149.0 450.0 L 149.0 448.0 L 148.0 447.0 L 148.0 445.0 L 146.0 441.0 L 146.0 438.0 L 144.0 435.0 L 144.0 406.0 L 145.0 405.0 L 145.0 391.0 L 146.0 390.0 L 146.0 388.0 Z
M 232.0 365.0 L 233.0 364.0 L 234.0 365.0 L 233.0 366.0 Z
M 267.0 359.0 L 268.0 360.0 L 268.0 362.0 L 270.0 366.0 L 272.0 368.0 L 274.0 372.0 L 281.0 380.0 L 281.0 382.0 L 282.0 383.0 L 282.0 389.0 L 283.0 390.0 L 283.0 409.0 L 282.0 410.0 L 282.0 420.0 L 281.0 421.0 L 281.0 426.0 L 280.0 427.0 L 280.0 431.0 L 279.0 432.0 L 279.0 434.0 L 278.0 435.0 L 277.0 440.0 L 275.0 443.0 L 275.0 445.0 L 274.0 446.0 L 273.0 451.0 L 269.0 458.0 L 269.0 460.0 L 267.0 464.0 L 265.0 466.0 L 265.0 468.0 L 263.0 470.0 L 261.0 474.0 L 258.0 477.0 L 257.0 476.0 L 257.0 469.0 L 256.0 468.0 L 256.0 459.0 L 255.0 458.0 L 255.0 453.0 L 254.0 452.0 L 254.0 446.0 L 253.0 445.0 L 253.0 440.0 L 252.0 439.0 L 252.0 433.0 L 251.0 432.0 L 251.0 426.0 L 250.0 425.0 L 250.0 422.0 L 251.0 421.0 L 251.0 418.0 L 252.0 417.0 L 252.0 413.0 L 254.0 409.0 L 254.0 405.0 L 255.0 404.0 L 255.0 402.0 L 256.0 401.0 L 256.0 398.0 L 257.0 397.0 L 257.0 392.0 L 258.0 391.0 L 258.0 388.0 L 259.0 387.0 L 259.0 384.0 L 260.0 383.0 L 261.0 376.0 L 262.0 375.0 L 262.0 373.0 L 263.0 372.0 L 263.0 370.0 L 264.0 369.0 L 264.0 367.0 L 266.0 363.0 L 266.0 360.0 Z
M 169.0 359.0 L 171.0 361.0 L 171.0 364.0 L 173.0 368.0 L 173.0 371.0 L 174.0 372.0 L 174.0 375.0 L 176.0 379.0 L 177.0 386.0 L 178.0 387.0 L 178.0 389.0 L 180.0 393.0 L 180.0 396.0 L 181.0 397.0 L 181.0 401.0 L 182.0 402.0 L 182.0 405.0 L 183.0 406.0 L 183.0 410.0 L 184.0 411.0 L 184.0 415.0 L 185.0 416.0 L 185.0 420.0 L 186.0 421.0 L 186.0 431.0 L 185.0 432.0 L 185.0 437.0 L 184.0 438.0 L 184.0 443.0 L 183.0 444.0 L 183.0 449.0 L 182.0 450.0 L 182.0 456.0 L 181.0 457.0 L 181.0 464.0 L 180.0 465.0 L 180.0 477.0 L 179.0 478.0 L 174.0 472.0 L 174.0 470.0 L 172.0 468.0 L 167.0 458.0 L 167.0 456.0 L 164.0 451.0 L 163.0 446.0 L 159.0 439.0 L 159.0 437.0 L 158.0 436.0 L 158.0 433.0 L 157.0 432.0 L 157.0 429.0 L 156.0 428.0 L 156.0 422.0 L 155.0 421.0 L 155.0 414.0 L 154.0 413.0 L 154.0 403.0 L 153.0 402.0 L 153.0 396.0 L 154.0 395.0 L 154.0 386.0 L 155.0 385.0 L 155.0 381.0 L 161.0 375.0 L 161.0 374.0 L 165.0 369.0 L 165.0 367.0 Z
M 364.0 341.0 L 365.0 341.0 L 367.0 343.0 L 373.0 355.0 L 375.0 357.0 L 381.0 360.0 L 383.0 362.0 L 385.0 363.0 L 387.0 363.0 L 389.0 365.0 L 390.0 365.0 L 393.0 368.0 L 394.0 368.0 L 398.0 372.0 L 398.0 373.0 L 400.0 374.0 L 399.0 375.0 L 396.0 375.0 L 388.0 371.0 L 388.0 374.0 L 387.0 375.0 L 388.0 376.0 L 387.0 377.0 L 388.0 379.0 L 388.0 381.0 L 389.0 383.0 L 392.0 386.0 L 392.0 387.0 L 394.0 389.0 L 396.0 393.0 L 396.0 395.0 L 395.0 396.0 L 391.0 392.0 L 391.0 391.0 L 386.0 385.0 L 384.0 386.0 L 392.0 402.0 L 392.0 404.0 L 393.0 405.0 L 393.0 408.0 L 392.0 409.0 L 390.0 407.0 L 390.0 405.0 L 388.0 403.0 L 382.0 390.0 L 380.0 388.0 L 378.0 388.0 L 378.0 390.0 L 379.0 391.0 L 380.0 396.0 L 382.0 399.0 L 382.0 401.0 L 385.0 406.0 L 384.0 408.0 L 381.0 405.0 L 380.0 402.0 L 378.0 400.0 L 378.0 398.0 L 375.0 394.0 L 375.0 392.0 L 374.0 390.0 L 372.0 388.0 L 369.0 388.0 L 369.0 393.0 L 370.0 394.0 L 370.0 397.0 L 371.0 398.0 L 371.0 400.0 L 370.0 401.0 L 369.0 400.0 L 366.0 394.0 L 366.0 391.0 L 364.0 389.0 L 362.0 385.0 L 362.0 382.0 L 361.0 381.0 L 361.0 379.0 L 359.0 375.0 L 359.0 370.0 L 358.0 369.0 L 358.0 364.0 L 357.0 363.0 L 357.0 360.0 L 352.0 351.0 L 359.0 344.0 L 360.0 344.0 Z
M 71.0 340.0 L 75.0 343.0 L 76.0 343.0 L 79.0 346.0 L 80.0 346.0 L 84.0 350.0 L 81.0 353.0 L 78.0 359.0 L 78.0 362.0 L 77.0 363.0 L 77.0 368.0 L 76.0 369.0 L 76.0 374.0 L 75.0 375.0 L 75.0 378.0 L 74.0 379.0 L 73.0 384.0 L 70.0 389.0 L 70.0 391.0 L 68.0 394.0 L 68.0 396.0 L 65.0 400.0 L 64.0 399.0 L 64.0 397.0 L 66.0 393.0 L 66.0 388.0 L 65.0 387.0 L 61.0 389.0 L 60.0 391.0 L 60.0 393.0 L 59.0 394.0 L 59.0 396.0 L 57.0 398.0 L 54.0 405.0 L 51.0 408.0 L 50.0 406.0 L 51.0 405.0 L 51.0 403.0 L 54.0 398.0 L 54.0 396.0 L 57.0 390.0 L 57.0 388.0 L 55.0 388.0 L 53.0 390.0 L 52.0 393.0 L 50.0 395.0 L 49.0 397.0 L 49.0 399.0 L 46.0 403.0 L 43.0 409.0 L 42.0 408.0 L 42.0 405.0 L 45.0 399.0 L 45.0 397.0 L 48.0 391.0 L 50.0 389.0 L 50.0 387.0 L 51.0 386.0 L 50.0 385.0 L 48.0 385.0 L 47.0 386.0 L 46.0 389.0 L 42.0 394.0 L 39.0 401.0 L 37.0 403.0 L 36.0 401.0 L 37.0 400.0 L 37.0 398.0 L 38.0 397.0 L 38.0 394.0 L 39.0 392.0 L 41.0 390.0 L 42.0 387.0 L 45.0 384.0 L 45.0 383.0 L 48.0 379.0 L 48.0 377.0 L 47.0 376.0 L 48.0 374.0 L 48.0 372.0 L 46.0 371.0 L 40.0 375.0 L 36.0 375.0 L 35.0 374.0 L 37.0 373.0 L 38.0 371.0 L 40.0 369.0 L 41.0 369.0 L 46.0 364.0 L 58.0 358.0 L 63.0 353.0 L 65.0 349.0 L 65.0 347.0 L 67.0 345.0 L 69.0 341.0 Z
M 265.0 333.0 L 266.0 334.0 L 266.0 339.0 L 265.0 340.0 L 265.0 346.0 L 266.0 347.0 L 266.0 357.0 L 265.0 358.0 L 265.0 361.0 L 263.0 364.0 L 263.0 366.0 L 261.0 370.0 L 261.0 373.0 L 260.0 374.0 L 260.0 377.0 L 259.0 378.0 L 259.0 381.0 L 258.0 382.0 L 258.0 385.0 L 257.0 386.0 L 257.0 389.0 L 256.0 390.0 L 256.0 393.0 L 255.0 394.0 L 255.0 398.0 L 254.0 399.0 L 254.0 402.0 L 253.0 403.0 L 253.0 406.0 L 252.0 407.0 L 252.0 410.0 L 251.0 411.0 L 251.0 414.0 L 250.0 415.0 L 250.0 419.0 L 249.0 420.0 L 249.0 424.0 L 248.0 425.0 L 248.0 429.0 L 247.0 430.0 L 247.0 434.0 L 246.0 435.0 L 246.0 439.0 L 245.0 440.0 L 245.0 444.0 L 244.0 445.0 L 244.0 449.0 L 243.0 450.0 L 243.0 454.0 L 242.0 455.0 L 242.0 461.0 L 241.0 462.0 L 241.0 471.0 L 240.0 472.0 L 239.0 471.0 L 239.0 469.0 L 237.0 465.0 L 237.0 462.0 L 236.0 461.0 L 236.0 459.0 L 234.0 455.0 L 234.0 451.0 L 233.0 450.0 L 233.0 447.0 L 232.0 446.0 L 232.0 440.0 L 231.0 439.0 L 231.0 429.0 L 230.0 428.0 L 230.0 424.0 L 229.0 423.0 L 229.0 418.0 L 228.0 417.0 L 228.0 413.0 L 227.0 412.0 L 227.0 409.0 L 226.0 408.0 L 226.0 401.0 L 225.0 400.0 L 225.0 381.0 L 227.0 378.0 L 227.0 376.0 L 228.0 374.0 L 234.0 368.0 L 234.0 367.0 L 241.0 359.0 L 241.0 358.0 L 246.0 352.0 L 246.0 351.0 L 264.0 333.0 Z
M 265.0 333.0 L 266.0 332.0 L 267.0 333.0 L 266.0 334.0 Z
M 171.0 332.0 L 173.0 333.0 L 178.0 338.0 L 179.0 338.0 L 184.0 343.0 L 184.0 344.0 L 192.0 353.0 L 192.0 354.0 L 195.0 357.0 L 195.0 358.0 L 198.0 361.0 L 198.0 362.0 L 201.0 365.0 L 201.0 366.0 L 204.0 369.0 L 204.0 370.0 L 207.0 373.0 L 207.0 374.0 L 209.0 375.0 L 209.0 377.0 L 212.0 383.0 L 212.0 396.0 L 211.0 397.0 L 211.0 405.0 L 210.0 406.0 L 210.0 412.0 L 209.0 413.0 L 209.0 418.0 L 208.0 419.0 L 208.0 423.0 L 207.0 424.0 L 207.0 429.0 L 206.0 430.0 L 206.0 437.0 L 205.0 438.0 L 205.0 444.0 L 204.0 445.0 L 204.0 449.0 L 203.0 450.0 L 203.0 453.0 L 202.0 454.0 L 201.0 461.0 L 200.0 462.0 L 200.0 464.0 L 199.0 465.0 L 199.0 467.0 L 197.0 471.0 L 195.0 468.0 L 195.0 461.0 L 194.0 460.0 L 194.0 454.0 L 193.0 453.0 L 193.0 448.0 L 192.0 447.0 L 192.0 442.0 L 191.0 441.0 L 191.0 436.0 L 190.0 435.0 L 189.0 426.0 L 188.0 425.0 L 188.0 422.0 L 187.0 421.0 L 187.0 418.0 L 186.0 417.0 L 186.0 413.0 L 185.0 412.0 L 184.0 403.0 L 183.0 402.0 L 183.0 399.0 L 182.0 398.0 L 182.0 394.0 L 181.0 393.0 L 181.0 391.0 L 180.0 390.0 L 180.0 387.0 L 178.0 383.0 L 178.0 380.0 L 177.0 379.0 L 177.0 376.0 L 176.0 375.0 L 176.0 371.0 L 175.0 370.0 L 175.0 368.0 L 174.0 367.0 L 174.0 365.0 L 173.0 364.0 L 173.0 362.0 L 172.0 361.0 L 172.0 359.0 L 170.0 355.0 L 170.0 343.0 L 171.0 342.0 L 171.0 340.0 L 170.0 339.0 L 170.0 333.0 Z
M 273.0 326.0 L 275.0 327.0 L 275.0 329.0 L 277.0 332.0 L 277.0 334.0 L 278.0 335.0 L 278.0 337.0 L 279.0 338.0 L 279.0 340.0 L 280.0 341.0 L 280.0 343.0 L 282.0 347.0 L 282.0 350.0 L 284.0 354.0 L 284.0 357.0 L 286.0 361.0 L 286.0 364.0 L 287.0 365.0 L 287.0 369.0 L 288.0 370.0 L 288.0 374.0 L 289.0 375.0 L 289.0 380.0 L 290.0 381.0 L 290.0 383.0 L 289.0 384.0 L 275.0 370.0 L 275.0 369.0 L 271.0 364.0 L 270.0 362.0 L 270.0 360.0 L 269.0 359.0 L 269.0 356.0 L 268.0 355.0 L 268.0 344.0 L 267.0 343.0 L 267.0 338.0 L 268.0 337.0 L 268.0 330.0 L 271.0 327.0 Z
M 163.0 325.0 L 168.0 330.0 L 168.0 333.0 L 169.0 334.0 L 169.0 350.0 L 168.0 351.0 L 168.0 355.0 L 167.0 356.0 L 167.0 359.0 L 166.0 360.0 L 165.0 365.0 L 162.0 369.0 L 162.0 370.0 L 151.0 382.0 L 147.0 384.0 L 146.0 382.0 L 147.0 381.0 L 147.0 376.0 L 148.0 375.0 L 148.0 371.0 L 149.0 370.0 L 149.0 367.0 L 150.0 366.0 L 150.0 362.0 L 152.0 358.0 L 152.0 355.0 L 154.0 351.0 L 154.0 348.0 L 155.0 347.0 L 155.0 345.0 L 156.0 344.0 L 156.0 342.0 L 157.0 341.0 L 157.0 339.0 L 158.0 338.0 L 158.0 336.0 L 159.0 335.0 L 160.0 330.0 Z
M 189.0 303.0 L 191.0 303.0 L 192.0 304.0 L 195.0 304.0 L 196.0 305.0 L 199.0 305.0 L 200.0 306.0 L 203.0 306.0 L 204.0 307.0 L 214.0 307.0 L 215.0 306.0 L 216.0 307.0 L 216.0 328.0 L 217.0 329.0 L 217.0 338.0 L 216.0 339.0 L 216.0 372.0 L 215.0 373.0 L 212.0 373.0 L 208.0 371.0 L 205.0 368.0 L 205.0 367.0 L 202.0 364.0 L 202.0 362.0 L 200.0 359.0 L 200.0 357.0 L 197.0 352.0 L 197.0 349.0 L 196.0 348.0 L 196.0 346.0 L 194.0 342.0 L 194.0 339.0 L 193.0 338.0 L 193.0 334.0 L 192.0 333.0 L 191.0 324.0 L 190.0 323.0 L 190.0 317.0 L 189.0 316.0 L 189.0 309.0 L 188.0 308.0 L 188.0 304.0 Z
M 245.0 302.0 L 246.0 303.0 L 245.0 304.0 L 245.0 309.0 L 244.0 310.0 L 244.0 318.0 L 243.0 319.0 L 243.0 324.0 L 242.0 325.0 L 242.0 328.0 L 241.0 329.0 L 241.0 333.0 L 240.0 334.0 L 239.0 343.0 L 238.0 344.0 L 238.0 346.0 L 237.0 347.0 L 237.0 349.0 L 236.0 350.0 L 235.0 355.0 L 232.0 360.0 L 232.0 362.0 L 229.0 368.0 L 229.0 370.0 L 225.0 373.0 L 222.0 373.0 L 220.0 374.0 L 219.0 373.0 L 219.0 308.0 L 220.0 307.0 L 229.0 307.0 L 230.0 306.0 L 237.0 305.0 L 238.0 304.0 L 240.0 304.0 L 241.0 303.0 L 243.0 303.0 Z
M 250.0 281.0 L 250.0 284.0 L 249.0 285.0 L 249.0 290.0 L 248.0 291.0 L 247.0 298.0 L 245.0 300.0 L 243.0 301.0 L 241.0 301.0 L 240.0 302.0 L 237.0 302.0 L 233.0 304.0 L 230.0 304.0 L 229.0 305.0 L 220.0 305.0 L 219.0 304.0 L 219.0 282.0 L 220.0 281.0 L 222.0 282.0 L 245.0 282.0 L 248.0 280.0 Z
M 183.0 281.0 L 185.0 280.0 L 188.0 282.0 L 210.0 282.0 L 211.0 281.0 L 214.0 281.0 L 215.0 280.0 L 217.0 282.0 L 216.0 283.0 L 217.0 285.0 L 216.0 287.0 L 217.0 288.0 L 217.0 291.0 L 216.0 292.0 L 216.0 303.0 L 214.0 305.0 L 205.0 305.0 L 204.0 304.0 L 197.0 303.0 L 196.0 302.0 L 194.0 302.0 L 193.0 301.0 L 191.0 301.0 L 189.0 300.0 L 186.0 297.0 L 186.0 294.0 L 185.0 293.0 L 185.0 289.0 L 184.0 288.0 L 184.0 283.0 Z
M 298.0 267.0 L 300.0 267.0 L 302.0 269.0 L 304.0 269.0 L 307.0 271.0 L 309.0 271.0 L 312.0 273.0 L 314.0 273.0 L 320.0 276.0 L 322.0 273.0 L 322.0 269.0 L 323.0 268.0 L 323.0 260.0 L 325.0 257.0 L 334.0 266.0 L 334.0 267.0 L 338.0 271.0 L 338.0 272.0 L 340.0 274.0 L 344.0 282.0 L 344.0 284.0 L 346.0 287.0 L 346.0 289.0 L 347.0 290.0 L 347.0 292.0 L 348.0 293.0 L 348.0 295.0 L 349.0 296.0 L 350.0 301.0 L 352.0 304.0 L 352.0 306.0 L 354.0 309.0 L 354.0 311.0 L 355.0 312.0 L 356.0 317.0 L 358.0 320.0 L 358.0 322.0 L 360.0 325.0 L 361.0 330.0 L 364.0 336.0 L 364.0 338.0 L 361.0 341.0 L 358.0 342.0 L 352.0 348.0 L 350.0 347.0 L 348.0 343.0 L 348.0 341.0 L 345.0 335.0 L 339.0 328.0 L 337.0 324.0 L 336.0 324.0 L 335.0 322.0 L 325.0 312.0 L 324.0 312.0 L 321.0 309.0 L 320.0 309.0 L 307.0 297.0 L 306.0 294.0 L 304.0 292.0 L 302.0 288.0 L 302.0 286.0 L 299.0 280.0 L 299.0 277.0 L 298.0 276.0 L 298.0 273.0 L 297.0 272.0 L 297.0 268.0 Z
M 139.0 267.0 L 140.0 268.0 L 140.0 270.0 L 139.0 271.0 L 139.0 275.0 L 138.0 276.0 L 138.0 279.0 L 137.0 280.0 L 136.0 285.0 L 133.0 290.0 L 133.0 292.0 L 131.0 294.0 L 129.0 298.0 L 124.0 303.0 L 123.0 303.0 L 118.0 308.0 L 115.0 309.0 L 114.0 311.0 L 112.0 312.0 L 101.0 323.0 L 101.0 324.0 L 93.0 333.0 L 92.0 336.0 L 90.0 338.0 L 88.0 342.0 L 88.0 344.0 L 87.0 346.0 L 85.0 348.0 L 82.0 345.0 L 78.0 343.0 L 75.0 340.0 L 72.0 339.0 L 71.0 337.0 L 75.0 330.0 L 75.0 328.0 L 77.0 325.0 L 78.0 320.0 L 80.0 317.0 L 80.0 315.0 L 83.0 310.0 L 83.0 308.0 L 87.0 300.0 L 87.0 298.0 L 88.0 297.0 L 88.0 294.0 L 89.0 293.0 L 90.0 288.0 L 92.0 285.0 L 92.0 283.0 L 96.0 275.0 L 98.0 273.0 L 99.0 270.0 L 104.0 265.0 L 104.0 264.0 L 112.0 256.0 L 113.0 257.0 L 113.0 263.0 L 114.0 264.0 L 114.0 271.0 L 116.0 275.0 L 119.0 275.0 L 120.0 274.0 L 122.0 274.0 L 127.0 271.0 L 129.0 271.0 L 137.0 267.0 Z
M 219.0 252.0 L 220.0 251.0 L 222.0 251.0 L 223.0 252.0 L 227.0 252.0 L 228.0 253.0 L 232.0 253.0 L 233.0 254.0 L 243.0 254.0 L 249.0 251.0 L 250.0 252.0 L 250.0 277.0 L 244.0 280.0 L 224.0 280.0 L 223.0 279.0 L 220.0 279.0 L 219.0 278.0 L 219.0 274.0 L 218.0 273.0 L 219.0 272.0 L 219.0 268.0 L 218.0 267.0 L 218.0 259.0 L 219.0 258.0 Z
M 183.0 252.0 L 184.0 251.0 L 190.0 254.0 L 200.0 254.0 L 201.0 253.0 L 204.0 253.0 L 205.0 252.0 L 210.0 252.0 L 211.0 251.0 L 215.0 251.0 L 217.0 253.0 L 216.0 254.0 L 217.0 255.0 L 217.0 276.0 L 215.0 278.0 L 213.0 279.0 L 211.0 279.0 L 210.0 280.0 L 190.0 280.0 L 189.0 279.0 L 187.0 279.0 L 185.0 278.0 L 183.0 276.0 Z
M 218.0 220.0 L 220.0 218.0 L 226.0 218.0 L 227.0 219.0 L 229.0 219.0 L 230.0 220.0 L 233.0 220.0 L 234.0 221.0 L 239.0 221.0 L 240.0 222.0 L 247.0 222.0 L 248.0 223.0 L 248.0 227.0 L 249.0 228.0 L 249.0 235.0 L 250.0 236.0 L 250.0 248.0 L 243.0 252.0 L 234.0 252.0 L 233.0 251.0 L 229.0 251.0 L 228.0 250.0 L 224.0 250.0 L 223.0 249.0 L 220.0 249.0 L 219.0 248.0 L 219.0 221.0 Z
M 217.0 220.0 L 217.0 236.0 L 216.0 237.0 L 216.0 248.0 L 215.0 249.0 L 210.0 249.0 L 209.0 250.0 L 206.0 250.0 L 205.0 251.0 L 201.0 251.0 L 200.0 252.0 L 190.0 252.0 L 183.0 248.0 L 183.0 238.0 L 184.0 237.0 L 184.0 228.0 L 185.0 227.0 L 185.0 224.0 L 187.0 222.0 L 195.0 222.0 L 196.0 221.0 L 202.0 221.0 L 203.0 220.0 L 207.0 220.0 L 211.0 218.0 L 215.0 218.0 Z
M 278.0 213.0 L 280.0 216.0 L 280.0 225.0 L 281.0 226.0 L 281.0 231.0 L 280.0 232.0 L 280.0 234.0 L 279.0 236.0 L 277.0 238.0 L 273.0 246.0 L 273.0 249.0 L 272.0 250.0 L 272.0 253.0 L 271.0 254.0 L 271.0 278.0 L 272.0 279.0 L 272.0 285.0 L 273.0 286.0 L 273.0 294.0 L 274.0 295.0 L 274.0 303.0 L 275.0 304.0 L 275.0 317.0 L 274.0 318.0 L 274.0 322.0 L 267.0 329.0 L 266.0 329.0 L 263.0 332.0 L 262.0 332.0 L 259.0 335.0 L 258.0 335.0 L 258.0 336.0 L 256.0 337.0 L 251.0 342.0 L 251.0 343.0 L 243.0 352.0 L 243.0 353.0 L 240.0 356.0 L 240.0 357.0 L 237.0 360.0 L 237.0 361.0 L 234.0 365.0 L 233.0 364.0 L 233.0 362.0 L 237.0 354.0 L 237.0 352.0 L 239.0 348.0 L 239.0 345.0 L 241.0 341.0 L 241.0 338.0 L 242.0 337.0 L 242.0 332.0 L 243.0 331.0 L 243.0 327.0 L 244.0 326.0 L 244.0 322.0 L 245.0 321.0 L 245.0 314.0 L 246.0 313.0 L 246.0 306.0 L 247.0 305.0 L 247.0 302.0 L 248.0 301.0 L 248.0 297.0 L 249.0 296.0 L 249.0 293.0 L 250.0 292.0 L 250.0 288.0 L 251.0 287.0 L 251.0 281.0 L 252.0 280.0 L 252.0 255.0 L 251.0 254.0 L 252.0 252.0 L 251.0 250.0 L 252.0 249.0 L 252.0 244.0 L 251.0 243.0 L 251.0 230.0 L 250.0 229.0 L 250.0 224.0 L 253.0 222.0 L 254.0 223.0 L 255.0 222.0 L 258.0 222.0 L 259.0 221.0 L 264.0 220.0 Z
M 158.0 213.0 L 165.0 216.0 L 167.0 218.0 L 169.0 218.0 L 172.0 220.0 L 174.0 220.0 L 178.0 222.0 L 182.0 222.0 L 184.0 224.0 L 183.0 226.0 L 183.0 231.0 L 182.0 232.0 L 182.0 247.0 L 181.0 248.0 L 182.0 250.0 L 182.0 273.0 L 181.0 274.0 L 182.0 276.0 L 181.0 278.0 L 182.0 279.0 L 182.0 286.0 L 183.0 287.0 L 183.0 292.0 L 184.0 293.0 L 184.0 296.0 L 185.0 297.0 L 185.0 300.0 L 186.0 301.0 L 186.0 305.0 L 187.0 306.0 L 187.0 313.0 L 188.0 314.0 L 188.0 321.0 L 189.0 322.0 L 189.0 326.0 L 190.0 327.0 L 190.0 331.0 L 191.0 332.0 L 192.0 341.0 L 193.0 342.0 L 193.0 345.0 L 194.0 346.0 L 194.0 348.0 L 196.0 352.0 L 195.0 354.0 L 190.0 348.0 L 190.0 347.0 L 187.0 344.0 L 187.0 343.0 L 182.0 338.0 L 181.0 338.0 L 176.0 333.0 L 175.0 333.0 L 169.0 327.0 L 168.0 327.0 L 162.0 321.0 L 162.0 299.0 L 163.0 298.0 L 163.0 290.0 L 164.0 289.0 L 164.0 282.0 L 165.0 281.0 L 165.0 268.0 L 166.0 267.0 L 166.0 255.0 L 165.0 254.0 L 165.0 251.0 L 164.0 250.0 L 164.0 246.0 L 160.0 238.0 L 158.0 236.0 L 156.0 232.0 L 156.0 221.0 L 157.0 220.0 L 157.0 214.0 Z
M 289.0 204.0 L 293.0 204.0 L 304.0 212.0 L 308.0 214.0 L 310.0 214.0 L 313.0 217.0 L 313.0 218.0 L 315.0 220.0 L 318.0 226.0 L 318.0 228.0 L 320.0 232.0 L 320.0 235.0 L 321.0 236.0 L 321.0 241.0 L 322.0 242.0 L 322.0 248.0 L 323.0 249.0 L 323.0 255.0 L 322.0 256.0 L 322.0 263.0 L 321.0 264.0 L 321.0 271.0 L 319.0 273.0 L 313.0 270.0 L 311.0 270.0 L 308.0 268.0 L 306.0 268.0 L 303.0 266.0 L 301.0 266.0 L 297.0 264.0 L 291.0 258.0 L 291.0 257.0 L 289.0 255.0 L 289.0 253.0 L 287.0 250.0 L 287.0 248.0 L 286.0 247.0 L 286.0 244.0 L 284.0 240.0 L 283.0 233.0 L 282.0 232.0 L 282.0 220.0 L 281.0 219.0 L 281.0 210.0 L 285.0 207.0 L 286.0 207.0 Z
M 147.0 204.0 L 156.0 211.0 L 156.0 214.0 L 155.0 215.0 L 155.0 225.0 L 154.0 226.0 L 154.0 235.0 L 153.0 236.0 L 153.0 239.0 L 152.0 240.0 L 152.0 242.0 L 150.0 246.0 L 150.0 249.0 L 149.0 250.0 L 149.0 252.0 L 147.0 254.0 L 147.0 256.0 L 146.0 258.0 L 140.0 264.0 L 136.0 266.0 L 134.0 266.0 L 131.0 268.0 L 129.0 268.0 L 126.0 270.0 L 124.0 270.0 L 119.0 273.0 L 117.0 273.0 L 116.0 272.0 L 116.0 268.0 L 115.0 267.0 L 115.0 260.0 L 114.0 259.0 L 114.0 245.0 L 115.0 244.0 L 115.0 239.0 L 116.0 238.0 L 116.0 234.0 L 117.0 233.0 L 117.0 230.0 L 118.0 229.0 L 118.0 227.0 L 121.0 221.0 L 123.0 219.0 L 124.0 216.0 L 126.0 214.0 L 129.0 214.0 L 131.0 213.0 L 133.0 211.0 L 134.0 211.0 L 136.0 209.0 L 140.0 207.0 L 143.0 204.0 Z
M 248.0 164.0 L 255.0 165.0 L 259.0 167.0 L 267.0 174.0 L 267.0 175.0 L 270.0 178.0 L 270.0 179.0 L 272.0 181.0 L 274.0 185.0 L 277.0 188.0 L 277.0 189.0 L 281.0 194.0 L 282.0 197.0 L 284.0 199.0 L 286.0 203.0 L 284.0 205.0 L 283.0 205.0 L 276.0 212.0 L 272.0 214.0 L 270.0 214.0 L 268.0 216.0 L 266.0 216.0 L 258.0 220.0 L 242.0 220.0 L 241.0 219.0 L 235.0 219.0 L 234.0 218.0 L 230.0 218.0 L 229.0 217.0 L 227.0 217.0 L 225.0 216.0 L 222.0 213.0 L 221.0 211.0 L 221.0 205.0 L 222.0 204.0 L 222.0 195.0 L 223.0 194.0 L 223.0 184.0 L 224.0 183.0 L 224.0 181.0 L 227.0 178.0 L 227.0 177.0 L 234.0 171.0 L 235.0 171.0 L 240.0 167.0 L 244.0 165.0 L 247.0 165.0 Z
M 150.0 202.0 L 152.0 200.0 L 155.0 194.0 L 157.0 192.0 L 159.0 188.0 L 162.0 185.0 L 162.0 184.0 L 164.0 182.0 L 166.0 178.0 L 169.0 175.0 L 169.0 174.0 L 173.0 170.0 L 174.0 170.0 L 179.0 166.0 L 181.0 165.0 L 183.0 165.0 L 184.0 164.0 L 188.0 164.0 L 189.0 165.0 L 192.0 165.0 L 196.0 167.0 L 198.0 169.0 L 201.0 170.0 L 211.0 179.0 L 213.0 183.0 L 213.0 191.0 L 214.0 192.0 L 214.0 201.0 L 215.0 202.0 L 215.0 213.0 L 212.0 216.0 L 210.0 217.0 L 208.0 217.0 L 207.0 218.0 L 203.0 218.0 L 202.0 219.0 L 196.0 219.0 L 195.0 220.0 L 185.0 220.0 L 184.0 221.0 L 183.0 220.0 L 179.0 220.0 L 178.0 219.0 L 175.0 219.0 L 159.0 211.0 L 154.0 206.0 L 153.0 206.0 L 150.0 203.0 Z
M 253.0 162.0 L 259.0 158.0 L 269.0 158.0 L 270.0 157.0 L 278.0 157.0 L 279.0 158.0 L 284.0 158.0 L 285.0 159.0 L 288.0 159.0 L 291.0 161.0 L 293.0 161.0 L 299.0 164.0 L 305.0 170.0 L 305.0 171.0 L 307.0 173.0 L 308.0 175.0 L 308.0 177.0 L 309.0 178.0 L 309.0 180.0 L 310.0 181.0 L 310.0 183.0 L 311.0 184.0 L 311.0 193.0 L 312.0 195.0 L 311.0 196.0 L 311.0 203.0 L 310.0 204.0 L 310.0 208.0 L 308.0 211.0 L 305.0 210.0 L 299.0 205.0 L 296.0 204.0 L 294.0 202.0 L 289.0 202.0 L 286.0 199.0 L 286.0 198.0 L 282.0 193.0 L 281.0 190.0 L 278.0 187.0 L 278.0 186.0 L 276.0 184.0 L 276.0 183.0 L 274.0 181.0 L 272.0 177.0 L 268.0 173.0 L 268.0 172.0 L 260.0 165.0 L 256.0 163.0 L 254.0 163.0 Z
M 182.0 162.0 L 180.0 164.0 L 178.0 164.0 L 172.0 169.0 L 171.0 169.0 L 171.0 170.0 L 165.0 176.0 L 164.0 179.0 L 159.0 185.0 L 159.0 186.0 L 153.0 194.0 L 152.0 197.0 L 149.0 200.0 L 148.0 202.0 L 143.0 202.0 L 130.0 211.0 L 128.0 211.0 L 127.0 210.0 L 127.0 206.0 L 126.0 205.0 L 126.0 200.0 L 125.0 199.0 L 125.0 188.0 L 126.0 187.0 L 126.0 182.0 L 127.0 181.0 L 127.0 179.0 L 128.0 178.0 L 128.0 176.0 L 130.0 172.0 L 136.0 165.0 L 148.0 159.0 L 151.0 159.0 L 152.0 158.0 L 158.0 158.0 L 159.0 157.0 L 163.0 157.0 L 164.0 158.0 L 177.0 158.0 L 179.0 159.0 Z
M 226.0 161.0 L 234.0 145.0 L 234.0 142.0 L 235.0 141.0 L 235.0 139.0 L 237.0 135.0 L 237.0 132.0 L 238.0 131.0 L 240.0 133.0 L 240.0 136.0 L 241.0 137.0 L 241.0 139.0 L 243.0 143.0 L 248.0 148.0 L 249.0 148.0 L 254.0 152.0 L 260.0 155.0 L 259.0 156.0 L 248.0 156.0 L 247.0 157.0 L 241.0 157.0 L 240.0 158.0 L 238.0 158.0 L 237.0 159.0 L 235.0 159.0 L 234.0 160.0 L 232.0 160.0 L 228.0 162.0 Z
M 198.0 131.0 L 200.0 134.0 L 200.0 137.0 L 201.0 138.0 L 201.0 140.0 L 202.0 141.0 L 203.0 146.0 L 210.0 160.0 L 209.0 162.0 L 205.0 160.0 L 200.0 159.0 L 199.0 158.0 L 196.0 158.0 L 195.0 157.0 L 190.0 157.0 L 189.0 156.0 L 178.0 156.0 L 177.0 155.0 L 179.0 153.0 L 184.0 151.0 L 186.0 149.0 L 190.0 147.0 L 193.0 144.0 L 195.0 140.0 L 195.0 138.0 L 196.0 137.0 L 197.0 132.0 Z
M 237.0 123.0 L 238.0 125.0 L 237.0 126.0 L 237.0 130.0 L 235.0 134.0 L 235.0 137.0 L 234.0 138.0 L 233.0 143.0 L 229.0 150.0 L 229.0 152.0 L 227.0 154.0 L 225.0 158.0 L 224.0 165.0 L 226.0 165.0 L 232.0 162.0 L 234.0 162.0 L 238.0 160.0 L 241.0 160.0 L 242.0 159.0 L 247.0 159.0 L 248.0 158.0 L 253.0 158.0 L 254.0 159.0 L 251.0 162.0 L 247.0 162.0 L 246.0 163.0 L 241.0 164.0 L 239.0 166.0 L 236.0 167.0 L 233.0 170.0 L 230.0 171.0 L 230.0 172.0 L 228.0 174.0 L 227.0 174.0 L 226.0 176.0 L 223.0 179.0 L 223.0 181.0 L 222.0 182.0 L 222.0 185.0 L 221.0 186.0 L 221.0 199.0 L 220.0 200.0 L 220.0 214.0 L 221.0 215.0 L 220.0 216.0 L 216.0 216.0 L 215.0 215.0 L 217.0 211.0 L 217.0 207.0 L 216.0 206.0 L 216.0 197.0 L 215.0 196.0 L 215.0 185.0 L 214.0 184.0 L 214.0 181.0 L 212.0 177.0 L 206.0 171.0 L 205.0 171.0 L 197.0 165.0 L 195.0 164.0 L 193.0 164.0 L 190.0 162.0 L 186.0 162.0 L 182.0 159.0 L 183.0 158.0 L 188.0 158.0 L 189.0 159.0 L 195.0 159.0 L 196.0 160.0 L 198.0 160.0 L 199.0 161.0 L 204.0 162.0 L 207.0 164.0 L 209.0 164.0 L 211.0 166.0 L 212.0 166.0 L 213.0 164.0 L 212.0 163.0 L 212.0 161.0 L 211.0 160.0 L 210.0 155.0 L 205.0 146.0 L 205.0 144.0 L 204.0 143.0 L 204.0 141.0 L 203.0 140.0 L 203.0 138.0 L 201.0 134.0 L 201.0 131.0 L 200.0 130.0 L 200.0 127.0 L 199.0 125.0 L 200.0 124.0 L 206.0 128.0 L 209.0 128.0 L 213.0 130.0 L 223.0 130.0 L 224.0 129.0 L 227.0 129.0 L 228.0 128.0 L 230.0 128.0 L 234.0 126.0 Z
M 235.0 60.0 L 238.0 63.0 L 238.0 65.0 L 240.0 68.0 L 240.0 72.0 L 241.0 73.0 L 241.0 82.0 L 242.0 83.0 L 243.0 92.0 L 245.0 91.0 L 247.0 92.0 L 247.0 102.0 L 246.0 104.0 L 241.0 108.0 L 240.0 110.0 L 240.0 112.0 L 239.0 113.0 L 239.0 117.0 L 238.0 119.0 L 233.0 124.0 L 227.0 127.0 L 225.0 127.0 L 224.0 128.0 L 212.0 128.0 L 209.0 126.0 L 207.0 126.0 L 205.0 125.0 L 199.0 119.0 L 199.0 114.0 L 198.0 113.0 L 198.0 109.0 L 197.0 107.0 L 193.0 103.0 L 192.0 101.0 L 192.0 99.0 L 191.0 98.0 L 191.0 92.0 L 192.0 91.0 L 193.0 92.0 L 195.0 92.0 L 196.0 90.0 L 196.0 70.0 L 199.0 66.0 L 199.0 65.0 L 202.0 63.0 L 205.0 63.0 L 206.0 64.0 L 219.0 64.0 L 220.0 63.0 L 224.0 63.0 L 225.0 62.0 L 228.0 62.0 L 232.0 60.0 Z
M 198.0 53.0 L 200.0 52.0 L 201.0 50.0 L 203.0 50.0 L 204.0 49.0 L 209.0 49.0 L 211.0 47.0 L 212.0 48.0 L 214.0 48.0 L 215.0 47.0 L 220.0 47.0 L 221.0 48.0 L 224.0 48.0 L 225.0 49.0 L 227.0 49.0 L 228.0 50.0 L 233.0 51.0 L 243.0 61.0 L 244.0 63.0 L 244.0 65.0 L 246.0 69.0 L 246.0 74.0 L 247.0 75.0 L 247.0 77.0 L 246.0 78.0 L 246.0 84.0 L 245.0 85.0 L 245.0 87.0 L 244.0 88.0 L 243.0 87.0 L 243.0 79.0 L 242.0 78.0 L 242.0 70.0 L 241.0 69.0 L 241.0 67.0 L 240.0 66.0 L 240.0 64.0 L 239.0 62.0 L 236.0 59.0 L 232.0 59.0 L 231.0 60.0 L 228.0 60.0 L 227.0 61.0 L 222.0 61.0 L 221.0 62.0 L 214.0 62.0 L 213.0 63.0 L 210.0 63.0 L 209.0 62.0 L 205.0 62.0 L 204.0 61.0 L 202.0 62.0 L 200.0 62.0 L 197.0 65.0 L 195.0 69.0 L 195.0 72.0 L 194.0 73.0 L 194.0 79.0 L 195.0 80.0 L 195.0 85.0 L 194.0 86.0 L 193.0 85.0 L 193.0 82.0 L 192.0 81.0 L 192.0 77.0 L 191.0 76.0 L 192.0 74.0 L 192.0 72.0 L 191.0 70.0 L 192.0 69.0 L 192.0 64.0 L 194.0 60.0 L 198.0 55.0 Z
M 642.0 40.0 L 641.0 41.0 L 634.0 41.0 L 633.0 42.0 L 630.0 42.0 L 626.0 44.0 L 624.0 46.0 L 623.0 46.0 L 617.0 52.0 L 613.0 60.0 L 613.0 64.0 L 612.0 65.0 L 612.0 76.0 L 611.0 77.0 L 611.0 92.0 L 612.0 93.0 L 612.0 98.0 L 613.0 99.0 L 613.0 102.0 L 619.0 114.0 L 619.0 123.0 L 616.0 126.0 L 616.0 127.0 L 609.0 134.0 L 608.0 134.0 L 605.0 137.0 L 604.0 137.0 L 599.0 141.0 L 597.0 141.0 L 595.0 143.0 L 581.0 143.0 L 580.0 144.0 L 575.0 144.0 L 574.0 145.0 L 572.0 145.0 L 571.0 146.0 L 566.0 147.0 L 558.0 151.0 L 556.0 153.0 L 555.0 153.0 L 547.0 161.0 L 546.0 163.0 L 546.0 165.0 L 543.0 170.0 L 543.0 172.0 L 542.0 173.0 L 542.0 177.0 L 541.0 178.0 L 541.0 203.0 L 538.0 209.0 L 538.0 211.0 L 537.0 212.0 L 536.0 217.0 L 533.0 222.0 L 533.0 224.0 L 532.0 225.0 L 532.0 227.0 L 531.0 228.0 L 531.0 230.0 L 529.0 234.0 L 529.0 237.0 L 528.0 238.0 L 528.0 241.0 L 527.0 242.0 L 527.0 247.0 L 526.0 248.0 L 526.0 254.0 L 520.0 262.0 L 515.0 272.0 L 513.0 274.0 L 506.0 288.0 L 506.0 290.0 L 504.0 293.0 L 504.0 295.0 L 500.0 302.0 L 500.0 304.0 L 497.0 310.0 L 497.0 312.0 L 496.0 313.0 L 496.0 316.0 L 494.0 320.0 L 494.0 324.0 L 493.0 325.0 L 493.0 328.0 L 492.0 329.0 L 491.0 336.0 L 490.0 337.0 L 489.0 342.0 L 486.0 347.0 L 486.0 349.0 L 484.0 352.0 L 484.0 354.0 L 479.0 359.0 L 478.0 359.0 L 478.0 360.0 L 469.0 369.0 L 469.0 370.0 L 461.0 378.0 L 460.0 378.0 L 456.0 382.0 L 455.0 382.0 L 452.0 386.0 L 452.0 389.0 L 453.0 390.0 L 456.0 390.0 L 460.0 387.0 L 461.0 387.0 L 466.0 382.0 L 468.0 381.0 L 469.0 382.0 L 465.0 390.0 L 463.0 392.0 L 463.0 393.0 L 461.0 395.0 L 461.0 396.0 L 459.0 398.0 L 457.0 402.0 L 459.0 406.0 L 462.0 406.0 L 467.0 401.0 L 467.0 400.0 L 469.0 398.0 L 470.0 399.0 L 466.0 407.0 L 466.0 409.0 L 465.0 410.0 L 465.0 413.0 L 468.0 415.0 L 471.0 415.0 L 471.0 414.0 L 474.0 410.0 L 474.0 408.0 L 477.0 404.0 L 477.0 402.0 L 481.0 397.0 L 482.0 398.0 L 482.0 400.0 L 481.0 401.0 L 481.0 403.0 L 479.0 407.0 L 479.0 411.0 L 478.0 412.0 L 478.0 414.0 L 479.0 415.0 L 479.0 417.0 L 484.0 417.0 L 488.0 409.0 L 488.0 406.0 L 489.0 405.0 L 489.0 402.0 L 490.0 401.0 L 490.0 398.0 L 491.0 397.0 L 491.0 395.0 L 497.0 383.0 L 499.0 383.0 L 502.0 386.0 L 502.0 388.0 L 503.0 389.0 L 504.0 394.0 L 507.0 400.0 L 509.0 402.0 L 511.0 402.0 L 514.0 400.0 L 514.0 395.0 L 512.0 391.0 L 512.0 388.0 L 511.0 387.0 L 511.0 384.0 L 510.0 383.0 L 510.0 380.0 L 509.0 379.0 L 509.0 376.0 L 508.0 375.0 L 508.0 373.0 L 507.0 372.0 L 507.0 368.0 L 506.0 367.0 L 506.0 359.0 L 513.0 346.0 L 513.0 344.0 L 516.0 338.0 L 518.0 336.0 L 521.0 330.0 L 529.0 319.0 L 530.0 316.0 L 535.0 311.0 L 535.0 310.0 L 538.0 307.0 L 538.0 306.0 L 542.0 301.0 L 546.0 293.0 L 546.0 291.0 L 550.0 284.0 L 550.0 282.0 L 551.0 281.0 L 551.0 277.0 L 552.0 276.0 L 552.0 269.0 L 556.0 265.0 L 556.0 264.0 L 560.0 260.0 L 560.0 259.0 L 564.0 254.0 L 571.0 240.0 L 571.0 238.0 L 572.0 237.0 L 572.0 234.0 L 573.0 233.0 L 573.0 231.0 L 574.0 230.0 L 574.0 227.0 L 575.0 226.0 L 576.0 227.0 L 576.0 231.0 L 577.0 232.0 L 577.0 238.0 L 578.0 239.0 L 578.0 247.0 L 579.0 248.0 L 579.0 257.0 L 580.0 258.0 L 581.0 265.0 L 583.0 269.0 L 583.0 272.0 L 584.0 273.0 L 584.0 276.0 L 585.0 277.0 L 585.0 284.0 L 586.0 285.0 L 585.0 286.0 L 585.0 311.0 L 584.0 312.0 L 584.0 318.0 L 583.0 319.0 L 583.0 323.0 L 582.0 324.0 L 582.0 327.0 L 581.0 328.0 L 581.0 330.0 L 579.0 334.0 L 579.0 337.0 L 578.0 338.0 L 578.0 340.0 L 577.0 341.0 L 577.0 343.0 L 576.0 344.0 L 576.0 346.0 L 575.0 347.0 L 575.0 349.0 L 574.0 350.0 L 574.0 352.0 L 572.0 356.0 L 572.0 359.0 L 570.0 363.0 L 570.0 366.0 L 569.0 367.0 L 569.0 371.0 L 568.0 372.0 L 568.0 376.0 L 567.0 377.0 L 567.0 381.0 L 566.0 382.0 L 566.0 386.0 L 565.0 387.0 L 565.0 399.0 L 566.0 400.0 L 566.0 404.0 L 565.0 405.0 L 565.0 437.0 L 566.0 438.0 L 566.0 445.0 L 567.0 446.0 L 567.0 455.0 L 568.0 456.0 L 568.0 479.0 L 567.0 480.0 L 567.0 487.0 L 566.0 488.0 L 566.0 492.0 L 565.0 493.0 L 565.0 496.0 L 564.0 497.0 L 564.0 500.0 L 563.0 501.0 L 563.0 504.0 L 562.0 505.0 L 562.0 510.0 L 561.0 511.0 L 561.0 526.0 L 560.0 527.0 L 560.0 530.0 L 555.0 539.0 L 554.0 544.0 L 552.0 547.0 L 552.0 549.0 L 551.0 550.0 L 551.0 552.0 L 549.0 556.0 L 549.0 559.0 L 547.0 563.0 L 547.0 569.0 L 546.0 570.0 L 546.0 590.0 L 545.0 591.0 L 545.0 598.0 L 544.0 599.0 L 544.0 612.0 L 543.0 613.0 L 543.0 630.0 L 542.0 631.0 L 542.0 653.0 L 541.0 654.0 L 542.0 656.0 L 541.0 657.0 L 541.0 694.0 L 543.0 698.0 L 546.0 701.0 L 548.0 701.0 L 549.0 702.0 L 555.0 702.0 L 556.0 701.0 L 559.0 701.0 L 560.0 700.0 L 565.0 699.0 L 567.0 697.0 L 568.0 695.0 L 568.0 693.0 L 569.0 692.0 L 569.0 690.0 L 570.0 689.0 L 570.0 686.0 L 571.0 685.0 L 571.0 683.0 L 575.0 675.0 L 575.0 665.0 L 574.0 663.0 L 572.0 661.0 L 571.0 661.0 L 565.0 655.0 L 565.0 652.0 L 566.0 651.0 L 566.0 647.0 L 567.0 646.0 L 567.0 643.0 L 568.0 642.0 L 568.0 640.0 L 578.0 620.0 L 578.0 618.0 L 580.0 616.0 L 580.0 614.0 L 583.0 610.0 L 585.0 605.0 L 589.0 601.0 L 592.0 595.0 L 592.0 593.0 L 593.0 592.0 L 593.0 588.0 L 594.0 587.0 L 594.0 581.0 L 595.0 580.0 L 595.0 554.0 L 596.0 553.0 L 596.0 547.0 L 597.0 546.0 L 597.0 541.0 L 598.0 540.0 L 598.0 536.0 L 600.0 534.0 L 601.0 531.0 L 603.0 529.0 L 605.0 525.0 L 605.0 523.0 L 608.0 518.0 L 608.0 516.0 L 610.0 513.0 L 610.0 510.0 L 611.0 509.0 L 611.0 507.0 L 613.0 503.0 L 613.0 500.0 L 614.0 499.0 L 614.0 496.0 L 615.0 495.0 L 615.0 492.0 L 616.0 491.0 L 616.0 488.0 L 617.0 487.0 L 617.0 481.0 L 618.0 480.0 L 618.0 474.0 L 619.0 473.0 L 619.0 471.0 L 620.0 470.0 L 620.0 468.0 L 621.0 467.0 L 621.0 465.0 L 622.0 464.0 L 622.0 462.0 L 623.0 461.0 L 624.0 456.0 L 628.0 449.0 L 628.0 447.0 L 630.0 444.0 L 630.0 442.0 L 631.0 441.0 L 631.0 438.0 L 633.0 434.0 L 633.0 430.0 L 634.0 429.0 L 634.0 426.0 L 635.0 425.0 L 635.0 418.0 L 636.0 417.0 L 636.0 405.0 L 637.0 404.0 L 637.0 398.0 L 636.0 397.0 L 636.0 395.0 L 637.0 394.0 L 637.0 391.0 L 638.0 390.0 L 638.0 388.0 L 640.0 384.0 L 642.0 386.0 L 643.0 388.0 L 643.0 390.0 L 644.0 391.0 L 644.0 393.0 L 645.0 394.0 L 645.0 419.0 L 646.0 420.0 L 646.0 427.0 L 647.0 428.0 L 647.0 431.0 L 648.0 432.0 L 649.0 437.0 L 651.0 440.0 L 651.0 442.0 L 652.0 443.0 L 652.0 445.0 L 653.0 446.0 L 654.0 451.0 L 656.0 454.0 L 656.0 456.0 L 657.0 457.0 L 657.0 459.0 L 658.0 460.0 L 659.0 465.0 L 662.0 471.0 L 662.0 474.0 L 663.0 475.0 L 663.0 480.0 L 664.0 481.0 L 664.0 485.0 L 665.0 486.0 L 665.0 490.0 L 666.0 491.0 L 666.0 494.0 L 668.0 498.0 L 668.0 502.0 L 669.0 503.0 L 669.0 505.0 L 670.0 506.0 L 670.0 508.0 L 671.0 509.0 L 671.0 511.0 L 672.0 512.0 L 673.0 517.0 L 681.0 533.0 L 684.0 537.0 L 684.0 541.0 L 685.0 542.0 L 685.0 546.0 L 686.0 547.0 L 686.0 557.0 L 687.0 558.0 L 687.0 562.0 L 686.0 563.0 L 686.0 582.0 L 687.0 583.0 L 687.0 587.0 L 688.0 588.0 L 688.0 590.0 L 689.0 591.0 L 690.0 596.0 L 694.0 604.0 L 696.0 606.0 L 699.0 613.0 L 701.0 615.0 L 701.0 617.0 L 703.0 619.0 L 707.0 627.0 L 707.0 629.0 L 711.0 637.0 L 711.0 639.0 L 712.0 640.0 L 712.0 642.0 L 713.0 643.0 L 713.0 645.0 L 715.0 648.0 L 715.0 651.0 L 716.0 652.0 L 716.0 656.0 L 710.0 661.0 L 709.0 661.0 L 706.0 665.0 L 706.0 673.0 L 707.0 674.0 L 707.0 677.0 L 709.0 681.0 L 709.0 684.0 L 711.0 687.0 L 711.0 690.0 L 714.0 696.0 L 717.0 699.0 L 719.0 699.0 L 723.0 701.0 L 731.0 701.0 L 737.0 698.0 L 739.0 695.0 L 739.0 692.0 L 740.0 691.0 L 740.0 686.0 L 739.0 685.0 L 739.0 673.0 L 740.0 672.0 L 740.0 648.0 L 739.0 647.0 L 739.0 630.0 L 738.0 629.0 L 738.0 618.0 L 737.0 617.0 L 737.0 605.0 L 736.0 604.0 L 736.0 593.0 L 735.0 592.0 L 735.0 582.0 L 734.0 581.0 L 734.0 574.0 L 733.0 573.0 L 733.0 561.0 L 732.0 560.0 L 732.0 555.0 L 731.0 554.0 L 730.0 549.0 L 727.0 544.0 L 727.0 542.0 L 725.0 540.0 L 723.0 536.0 L 723.0 534.0 L 721.0 531.0 L 721.0 529.0 L 719.0 525.0 L 719.0 504.0 L 717.0 500.0 L 717.0 497.0 L 716.0 496.0 L 716.0 493.0 L 715.0 492.0 L 715.0 490.0 L 714.0 489.0 L 714.0 485.0 L 713.0 484.0 L 713.0 451.0 L 714.0 450.0 L 714.0 442.0 L 715.0 441.0 L 715.0 384.0 L 714.0 383.0 L 713.0 374.0 L 712.0 373.0 L 712.0 370.0 L 711.0 369.0 L 711.0 366.0 L 710.0 365.0 L 710.0 362.0 L 709.0 361.0 L 709.0 357.0 L 708.0 356.0 L 708.0 353.0 L 706.0 349.0 L 705.0 342.0 L 704.0 341.0 L 704.0 339.0 L 703.0 338.0 L 703.0 336.0 L 701.0 332.0 L 701.0 329.0 L 699.0 325.0 L 699.0 321.0 L 698.0 320.0 L 698.0 316.0 L 697.0 315.0 L 697.0 306.0 L 696.0 305.0 L 696.0 277.0 L 697.0 276.0 L 697.0 271.0 L 699.0 267.0 L 699.0 264.0 L 700.0 263.0 L 700.0 261.0 L 701.0 260.0 L 701.0 257.0 L 702.0 256.0 L 702.0 253.0 L 703.0 252.0 L 703.0 246.0 L 704.0 245.0 L 704.0 238.0 L 705.0 237.0 L 705.0 227.0 L 706.0 226.0 L 708.0 229.0 L 709.0 236.0 L 710.0 237.0 L 711.0 242.0 L 714.0 247.0 L 714.0 249.0 L 716.0 251.0 L 719.0 257.0 L 722.0 260.0 L 724.0 264.0 L 728.0 268.0 L 728.0 270.0 L 729.0 271.0 L 729.0 275.0 L 730.0 276.0 L 730.0 280.0 L 731.0 281.0 L 731.0 285.0 L 732.0 286.0 L 733.0 291.0 L 737.0 299.0 L 741.0 304.0 L 742.0 307.0 L 747.0 312.0 L 747.0 313.0 L 749.0 314.0 L 749.0 315.0 L 753.0 320.0 L 755.0 325.0 L 757.0 327.0 L 757.0 329.0 L 760.0 332.0 L 760.0 333.0 L 764.0 338.0 L 765.0 341.0 L 767.0 343.0 L 773.0 355.0 L 773.0 357.0 L 774.0 358.0 L 774.0 366.0 L 773.0 367.0 L 772.0 376.0 L 771.0 377.0 L 771.0 380.0 L 770.0 381.0 L 770.0 385.0 L 769.0 386.0 L 769.0 390.0 L 768.0 391.0 L 768.0 395.0 L 767.0 396.0 L 767.0 399.0 L 769.0 399.0 L 770.0 400.0 L 773.0 398.0 L 778.0 388.0 L 778.0 386.0 L 779.0 384.0 L 781.0 382.0 L 782.0 382.0 L 784.0 384.0 L 784.0 385.0 L 786.0 387.0 L 788.0 391.0 L 788.0 393.0 L 789.0 394.0 L 789.0 397.0 L 790.0 398.0 L 790.0 401.0 L 791.0 402.0 L 791.0 404.0 L 792.0 405.0 L 792.0 408.0 L 793.0 409.0 L 793.0 411.0 L 794.0 413.0 L 796.0 415.0 L 799.0 415.0 L 801.0 414.0 L 801.0 405.0 L 799.0 401.0 L 799.0 399.0 L 800.0 398.0 L 802.0 400.0 L 802.0 402.0 L 804.0 404.0 L 804.0 405.0 L 806.0 407.0 L 808.0 411.0 L 812.0 413.0 L 815.0 411.0 L 815.0 406.0 L 813.0 404.0 L 810.0 398.0 L 811.0 397.0 L 817.0 404.0 L 821.0 404.0 L 822.0 403.0 L 822.0 398.0 L 819.0 394.0 L 816.0 387.0 L 814.0 385.0 L 816.0 384.0 L 821.0 389.0 L 823.0 390.0 L 826.0 390.0 L 829.0 387.0 L 828.0 385.0 L 817.0 375.0 L 817.0 374.0 L 810.0 367.0 L 810.0 366.0 L 797.0 353.0 L 793.0 345.0 L 793.0 343.0 L 792.0 342.0 L 792.0 340.0 L 790.0 336.0 L 789.0 329.0 L 787.0 325.0 L 786.0 318.0 L 785.0 317.0 L 785.0 315.0 L 784.0 314.0 L 784.0 312.0 L 783.0 311.0 L 782.0 306.0 L 780.0 303.0 L 779.0 298.0 L 775.0 290.0 L 775.0 288.0 L 772.0 283.0 L 772.0 281.0 L 770.0 279.0 L 768.0 274.0 L 766.0 272.0 L 760.0 260.0 L 755.0 254.0 L 755.0 249.0 L 756.0 248.0 L 755.0 247.0 L 755.0 242.0 L 754.0 241.0 L 753.0 234.0 L 752.0 233.0 L 751.0 228.0 L 749.0 225.0 L 749.0 223.0 L 746.0 218.0 L 746.0 216.0 L 740.0 205.0 L 740.0 177.0 L 739.0 176.0 L 739.0 172.0 L 738.0 171.0 L 738.0 168.0 L 735.0 162.0 L 733.0 160.0 L 731.0 156.0 L 730.0 156.0 L 728.0 153.0 L 727.0 153.0 L 725.0 151.0 L 719.0 148.0 L 714.0 147.0 L 711.0 145.0 L 704.0 144.0 L 703.0 143.0 L 698.0 143.0 L 697.0 142.0 L 688.0 142.0 L 687.0 143.0 L 684.0 141.0 L 682.0 141.0 L 680.0 140.0 L 673.0 134.0 L 672.0 134.0 L 663.0 125.0 L 662.0 123.0 L 663.0 121.0 L 662.0 120.0 L 662.0 115.0 L 663.0 114.0 L 663.0 111.0 L 666.0 105.0 L 666.0 103.0 L 667.0 102.0 L 667.0 100.0 L 669.0 96.0 L 669.0 93.0 L 670.0 92.0 L 670.0 77.0 L 669.0 76.0 L 669.0 66.0 L 668.0 65.0 L 668.0 61.0 L 667.0 60.0 L 666.0 55.0 L 660.0 47.0 L 659.0 47.0 L 657.0 45.0 L 653.0 43.0 L 651.0 43.0 L 647.0 41.0 L 643.0 41.0 Z
M 715.0 582.0 L 722.0 591.0 L 732.0 596.0 L 734.0 598.0 L 734.0 607.0 L 735.0 608.0 L 735.0 620.0 L 736.0 621.0 L 736.0 631.0 L 737.0 632.0 L 737.0 655.0 L 738.0 656.0 L 738.0 674.0 L 737.0 675.0 L 737.0 686.0 L 738.0 687.0 L 738.0 693.0 L 735.0 697.0 L 733.0 698.0 L 731.0 698.0 L 730.0 699.0 L 727.0 699.0 L 726.0 698.0 L 722.0 698.0 L 718.0 696.0 L 714.0 692.0 L 714.0 690.0 L 713.0 689.0 L 713.0 685.0 L 714.0 684.0 L 714.0 681.0 L 713.0 680.0 L 711.0 682.0 L 710.0 681.0 L 710.0 678.0 L 708.0 674.0 L 708.0 670.0 L 707.0 668.0 L 708.0 666.0 L 715.0 659.0 L 717.0 660.0 L 717.0 666.0 L 718.0 667.0 L 719.0 666.0 L 719.0 657.0 L 718.0 656.0 L 718.0 651.0 L 717.0 650.0 L 717.0 648.0 L 716.0 647.0 L 716.0 645.0 L 715.0 644.0 L 714.0 639.0 L 712.0 636.0 L 712.0 634.0 L 708.0 626.0 L 708.0 624.0 L 702.0 612.0 L 700.0 610.0 L 698.0 605.0 L 696.0 603.0 L 697.0 601.0 L 703.0 598.0 L 708.0 593.0 L 708.0 592.0 L 712.0 587.0 L 713.0 584.0 Z
M 566.0 582.0 L 568.0 584.0 L 570.0 589.0 L 573.0 592.0 L 574.0 595.0 L 576.0 596.0 L 579.0 599.0 L 585.0 602.0 L 582.0 606.0 L 566.0 638.0 L 566.0 640.0 L 565.0 641.0 L 565.0 645.0 L 564.0 646.0 L 564.0 651.0 L 563.0 652.0 L 563.0 656.0 L 562.0 657.0 L 562.0 667.0 L 563.0 666.0 L 563.0 663.0 L 565.0 659.0 L 567.0 660.0 L 572.0 665.0 L 572.0 667.0 L 573.0 668.0 L 573.0 674.0 L 572.0 675.0 L 571.0 680.0 L 570.0 681.0 L 569.0 680.0 L 567.0 680.0 L 566.0 682.0 L 567.0 683.0 L 567.0 692.0 L 562.0 697.0 L 560.0 698.0 L 558.0 698.0 L 557.0 699.0 L 550.0 699.0 L 546.0 697.0 L 543.0 693.0 L 543.0 656.0 L 544.0 655.0 L 544.0 640.0 L 545.0 639.0 L 545.0 613.0 L 546.0 612.0 L 546.0 600.0 L 549.0 597.0 L 554.0 595.0 L 557.0 592.0 L 558.0 592.0 Z
M 696.0 513.0 L 697.0 514.0 L 697.0 520.0 L 702.0 530.0 L 702.0 533.0 L 703.0 534.0 L 703.0 536.0 L 705.0 540.0 L 705.0 543.0 L 707.0 547.0 L 707.0 551.0 L 708.0 552.0 L 708.0 557.0 L 709.0 558.0 L 710.0 567.0 L 711.0 568.0 L 711.0 571.0 L 712.0 572.0 L 712.0 574.0 L 714.0 578.0 L 713.0 580.0 L 713.0 582.0 L 711.0 584.0 L 709.0 588.0 L 706.0 591.0 L 706.0 592.0 L 697.0 599.0 L 696.0 599.0 L 693.0 596.0 L 691.0 592.0 L 691.0 590.0 L 689.0 586.0 L 689.0 582.0 L 688.0 581.0 L 688.0 561.0 L 689.0 560.0 L 689.0 557.0 L 688.0 556.0 L 688.0 545.0 L 687.0 544.0 L 687.0 540.0 L 685.0 536.0 L 685.0 533.0 L 688.0 528.0 L 688.0 526.0 L 693.0 516.0 Z
M 585.0 512.0 L 589.0 517.0 L 592.0 523.0 L 592.0 525.0 L 595.0 530.0 L 595.0 532.0 L 596.0 533.0 L 596.0 537.0 L 595.0 538.0 L 595.0 543.0 L 594.0 544.0 L 594.0 549.0 L 593.0 550.0 L 593.0 580.0 L 592.0 581.0 L 592.0 586.0 L 590.0 590.0 L 590.0 593.0 L 588.0 596.0 L 588.0 598.0 L 586.0 600.0 L 582.0 597.0 L 581.0 597.0 L 579.0 595.0 L 578.0 595.0 L 574.0 591.0 L 574.0 590.0 L 571.0 587.0 L 567.0 579.0 L 567.0 577.0 L 569.0 573.0 L 569.0 570.0 L 570.0 569.0 L 570.0 565.0 L 571.0 564.0 L 572.0 557.0 L 573.0 556.0 L 573.0 552.0 L 574.0 551.0 L 574.0 548.0 L 575.0 547.0 L 575.0 544.0 L 576.0 543.0 L 576.0 540.0 L 577.0 539.0 L 577.0 536.0 L 579.0 533.0 L 579.0 531.0 L 583.0 523.0 L 583.0 518.0 L 584.0 517.0 L 584.0 513.0 Z
M 714.0 501.0 L 715.0 500.0 L 716.0 501.0 L 715.0 502.0 Z
M 707.0 500.0 L 709.0 500.0 L 717.0 507.0 L 717.0 525.0 L 718.0 526.0 L 718.0 529.0 L 725.0 543.0 L 725.0 545.0 L 728.0 550.0 L 728.0 552.0 L 730.0 556.0 L 730.0 561.0 L 731.0 562.0 L 731.0 573.0 L 732.0 574.0 L 732.0 583.0 L 733.0 584.0 L 733.0 593.0 L 732.0 594.0 L 727.0 592.0 L 724.0 589.0 L 722.0 588.0 L 722.0 587.0 L 719.0 584.0 L 718.0 581.0 L 716.0 579.0 L 714.0 575.0 L 714.0 572.0 L 713.0 571.0 L 713.0 568.0 L 712.0 567.0 L 712.0 562.0 L 711.0 561.0 L 711.0 557.0 L 710.0 556.0 L 710.0 552.0 L 709.0 551.0 L 709.0 547.0 L 708.0 546.0 L 707.0 539.0 L 706.0 538.0 L 706.0 536.0 L 705.0 535.0 L 704.0 530.0 L 702.0 527.0 L 702.0 525.0 L 699.0 520.0 L 701.0 516.0 L 702.0 509.0 Z
M 573.0 500.0 L 575.0 502.0 L 576.0 504.0 L 576.0 506.0 L 578.0 509.0 L 578.0 511.0 L 580.0 514.0 L 580.0 516.0 L 581.0 517.0 L 581.0 522.0 L 579.0 525.0 L 579.0 527.0 L 577.0 530.0 L 577.0 532.0 L 575.0 536.0 L 575.0 539.0 L 574.0 540.0 L 574.0 543.0 L 572.0 547.0 L 572.0 551.0 L 571.0 552.0 L 571.0 556.0 L 570.0 557.0 L 570.0 561.0 L 569.0 562.0 L 569.0 566.0 L 568.0 567.0 L 568.0 570.0 L 566.0 574.0 L 566.0 577.0 L 563.0 583.0 L 558.0 589.0 L 557.0 589.0 L 554.0 592.0 L 550.0 594.0 L 548.0 594.0 L 547.0 593.0 L 548.0 592.0 L 547.0 591.0 L 547.0 587.0 L 548.0 586.0 L 548.0 576.0 L 549.0 575.0 L 549.0 569.0 L 550.0 568.0 L 550.0 561.0 L 551.0 560.0 L 551.0 556.0 L 553.0 553.0 L 553.0 550.0 L 554.0 549.0 L 554.0 547.0 L 559.0 538.0 L 559.0 536.0 L 562.0 531.0 L 562.0 529.0 L 564.0 525.0 L 564.0 507.0 L 568.0 503.0 L 571.0 502.0 Z
M 582.0 492.0 L 583.0 493.0 L 582.0 495.0 L 583.0 496.0 L 583.0 512.0 L 582.0 513.0 L 580.0 511.0 L 580.0 509.0 L 579.0 508.0 L 578.0 503.0 L 575.0 499.0 Z
M 698.0 490.0 L 700.0 492.0 L 700.0 493.0 L 704.0 497.0 L 706.0 498.0 L 702.0 504.0 L 702.0 506.0 L 700.0 509.0 L 700.0 512.0 L 699.0 513.0 L 698.0 512.0 L 698.0 494.0 L 697.0 493.0 L 697.0 491.0 Z
M 675.0 411.0 L 676.0 412.0 L 676.0 414.0 L 677.0 415.0 L 677.0 417.0 L 679.0 421.0 L 680.0 428.0 L 681.0 429.0 L 681.0 431.0 L 682.0 432.0 L 682.0 435.0 L 683.0 436.0 L 683.0 439.0 L 685.0 443.0 L 685.0 448.0 L 686.0 449.0 L 686.0 456.0 L 687.0 457.0 L 687.0 464.0 L 688.0 465.0 L 688.0 469.0 L 689.0 470.0 L 689.0 473.0 L 692.0 479.0 L 692.0 481.0 L 695.0 486.0 L 695.0 490.0 L 696.0 491.0 L 696.0 508.0 L 694.0 510.0 L 685.0 528.0 L 685.0 530.0 L 684.0 531.0 L 682.0 530.0 L 674.0 514.0 L 674.0 512.0 L 673.0 511.0 L 673.0 509.0 L 671.0 505.0 L 671.0 502.0 L 670.0 501.0 L 669.0 494.0 L 667.0 490.0 L 667.0 486.0 L 666.0 485.0 L 666.0 481.0 L 665.0 480.0 L 665.0 476.0 L 664.0 475.0 L 665.0 474.0 L 665.0 470.0 L 666.0 469.0 L 666.0 464.0 L 667.0 463.0 L 667.0 457.0 L 668.0 456.0 L 668.0 452.0 L 669.0 451.0 L 669.0 446.0 L 670.0 445.0 L 670.0 440.0 L 671.0 439.0 L 671.0 434.0 L 672.0 433.0 L 672.0 428.0 L 673.0 427.0 L 673.0 419.0 L 674.0 418.0 L 674.0 412.0 Z
M 606.0 410.0 L 608.0 413.0 L 608.0 418.0 L 609.0 419.0 L 609.0 425.0 L 610.0 426.0 L 610.0 435.0 L 611.0 436.0 L 611.0 446.0 L 612.0 447.0 L 612.0 453.0 L 613.0 454.0 L 613.0 459.0 L 614.0 460.0 L 614.0 463.0 L 615.0 464.0 L 615.0 468.0 L 616.0 469.0 L 616.0 472.0 L 617.0 473.0 L 616.0 474.0 L 616.0 480.0 L 615.0 481.0 L 615.0 485.0 L 614.0 486.0 L 613.0 495.0 L 612.0 496.0 L 612.0 499.0 L 611.0 500.0 L 611.0 502.0 L 609.0 506.0 L 609.0 509.0 L 607.0 512.0 L 607.0 514.0 L 605.0 517.0 L 605.0 519.0 L 598.0 532.0 L 594.0 525.0 L 594.0 523.0 L 589.0 513.0 L 585.0 508.0 L 585.0 489.0 L 590.0 479.0 L 590.0 477.0 L 592.0 473.0 L 592.0 470.0 L 593.0 469.0 L 593.0 465.0 L 594.0 464.0 L 594.0 456.0 L 595.0 455.0 L 595.0 446.0 L 596.0 445.0 L 596.0 440.0 L 597.0 439.0 L 597.0 436.0 L 598.0 435.0 L 599.0 430.0 L 601.0 427.0 L 601.0 425.0 L 602.0 424.0 L 602.0 422.0 L 604.0 418.0 L 605.0 411.0 Z
M 648.0 403.0 L 650.0 404.0 L 653.0 404.0 L 654.0 405.0 L 659.0 405.0 L 660.0 406.0 L 662.0 406.0 L 663.0 405.0 L 672.0 405.0 L 673.0 406.0 L 673.0 410.0 L 672.0 411.0 L 672.0 416.0 L 671.0 417.0 L 671.0 423.0 L 670.0 424.0 L 670.0 428.0 L 669.0 429.0 L 669.0 436.0 L 668.0 437.0 L 668.0 444.0 L 667.0 445.0 L 667.0 451.0 L 666.0 452.0 L 666.0 457.0 L 665.0 458.0 L 665.0 463.0 L 663.0 467.0 L 661.0 464.0 L 661.0 462.0 L 660.0 461.0 L 659.0 456.0 L 657.0 453.0 L 656.0 448.0 L 654.0 445.0 L 654.0 443.0 L 653.0 442.0 L 653.0 440.0 L 652.0 439.0 L 652.0 437.0 L 651.0 436.0 L 651.0 434.0 L 649.0 431.0 L 649.0 428.0 L 648.0 427.0 L 648.0 421.0 L 647.0 420.0 L 647.0 404.0 Z
M 634.0 402.0 L 635.0 403.0 L 634.0 405.0 L 634.0 419.0 L 633.0 420.0 L 633.0 425.0 L 632.0 426.0 L 632.0 430.0 L 631.0 431.0 L 631.0 434.0 L 629.0 437.0 L 629.0 439.0 L 628.0 440.0 L 628.0 442.0 L 627.0 443.0 L 627.0 445.0 L 626.0 446.0 L 625.0 451.0 L 622.0 456.0 L 622.0 458.0 L 621.0 459.0 L 620.0 464.0 L 618.0 467.0 L 617.0 466.0 L 617.0 464.0 L 616.0 463.0 L 616.0 459.0 L 615.0 458.0 L 615.0 452.0 L 614.0 451.0 L 614.0 445.0 L 613.0 444.0 L 613.0 437.0 L 612.0 436.0 L 612.0 427.0 L 611.0 426.0 L 611.0 419.0 L 610.0 418.0 L 610.0 413.0 L 609.0 412.0 L 609.0 409.0 L 608.0 408.0 L 608.0 406.0 L 609.0 405.0 L 610.0 406.0 L 623.0 406.0 L 624.0 405.0 L 627.0 405.0 L 628.0 404.0 L 630.0 404.0 Z
M 809.0 397.0 L 810.0 396.0 L 811.0 397.0 L 810.0 398.0 Z
M 469.0 397.0 L 470.0 396.0 L 471.0 398.0 L 470.0 399.0 Z
M 470.0 396.0 L 471.0 395.0 L 472.0 396.0 L 471.0 397.0 Z
M 454.0 387.0 L 455.0 386.0 L 456.0 387.0 L 455.0 388.0 Z
M 455.0 386.0 L 457.0 384.0 L 459.0 385.0 L 457.0 387.0 Z
M 706.0 368.0 L 708.0 370.0 L 709.0 373.0 L 711.0 375.0 L 711.0 378.0 L 712.0 379.0 L 712.0 383.0 L 713.0 384.0 L 713.0 441.0 L 712.0 442.0 L 712.0 451.0 L 711.0 452.0 L 711.0 484.0 L 712.0 485.0 L 712.0 489.0 L 713.0 490.0 L 713.0 492.0 L 714.0 493.0 L 714.0 496.0 L 715.0 497.0 L 715.0 500.0 L 714.0 501.0 L 711.0 500.0 L 701.0 491.0 L 701.0 490.0 L 696.0 484.0 L 693.0 478.0 L 693.0 476.0 L 691.0 472.0 L 691.0 469.0 L 690.0 468.0 L 690.0 464.0 L 689.0 463.0 L 689.0 458.0 L 688.0 457.0 L 688.0 451.0 L 687.0 450.0 L 687.0 444.0 L 686.0 443.0 L 686.0 438.0 L 685.0 437.0 L 685.0 434.0 L 684.0 433.0 L 684.0 430.0 L 683.0 429.0 L 682.0 424.0 L 679.0 418.0 L 679.0 415.0 L 678.0 414.0 L 678.0 411.0 L 677.0 410.0 L 677.0 407.0 L 676.0 406.0 L 677.0 404.0 L 679.0 404.0 L 680.0 403.0 L 684.0 403.0 L 690.0 400.0 L 692.0 400.0 L 696.0 398.0 L 699.0 395.0 L 704.0 385.0 L 704.0 382.0 L 705.0 381.0 L 705.0 369.0 Z
M 575.0 367.0 L 576.0 368.0 L 575.0 370.0 L 575.0 376.0 L 576.0 377.0 L 576.0 385.0 L 577.0 386.0 L 577.0 388.0 L 578.0 390.0 L 581.0 393.0 L 581.0 394.0 L 588.0 400.0 L 594.0 403.0 L 597.0 403.0 L 598.0 404.0 L 602.0 404.0 L 604.0 405.0 L 605.0 407.0 L 604.0 408.0 L 603.0 415.0 L 602.0 416.0 L 602.0 418.0 L 601.0 419.0 L 600.0 424.0 L 598.0 427.0 L 598.0 429.0 L 597.0 430.0 L 597.0 433.0 L 595.0 437.0 L 595.0 441.0 L 594.0 442.0 L 594.0 446.0 L 593.0 447.0 L 593.0 454.0 L 592.0 455.0 L 592.0 466.0 L 591.0 467.0 L 591.0 471.0 L 590.0 472.0 L 589.0 477.0 L 587.0 481.0 L 581.0 489.0 L 581.0 490.0 L 574.0 497.0 L 573.0 497.0 L 569.0 501.0 L 566.0 502.0 L 565.0 501.0 L 567.0 497.0 L 567.0 493.0 L 568.0 492.0 L 568.0 488.0 L 569.0 487.0 L 569.0 483.0 L 570.0 482.0 L 570.0 455.0 L 569.0 454.0 L 569.0 446.0 L 568.0 445.0 L 568.0 438.0 L 567.0 437.0 L 567.0 413.0 L 568.0 412.0 L 568.0 394.0 L 567.0 393.0 L 567.0 388.0 L 568.0 387.0 L 568.0 382.0 L 569.0 381.0 L 569.0 377.0 L 570.0 376.0 L 570.0 374.0 L 573.0 370.0 L 573.0 369.0 Z
M 707.0 365.0 L 708.0 364.0 L 709.0 365.0 L 708.0 366.0 Z
M 572.0 364.0 L 573.0 363.0 L 574.0 365.0 L 573.0 366.0 Z
M 484.0 357.0 L 490.0 360.0 L 495.0 360.0 L 496.0 361.0 L 503.0 361.0 L 504.0 362.0 L 504.0 367.0 L 505.0 368.0 L 505.0 372.0 L 506.0 373.0 L 506.0 376.0 L 507.0 377.0 L 507.0 380.0 L 508.0 381.0 L 508.0 385.0 L 509.0 386.0 L 509.0 389.0 L 510.0 390.0 L 510.0 395.0 L 511.0 396.0 L 511.0 398.0 L 510.0 399.0 L 507.0 396.0 L 506.0 394.0 L 506.0 392.0 L 505.0 391.0 L 505.0 389.0 L 504.0 388.0 L 504.0 386.0 L 502.0 382.0 L 498.0 380.0 L 496.0 382.0 L 495.0 382.0 L 490.0 392.0 L 490.0 394.0 L 488.0 398.0 L 488.0 401.0 L 487.0 402.0 L 487.0 404.0 L 486.0 405.0 L 486.0 407.0 L 484.0 410.0 L 484.0 412.0 L 482.0 415.0 L 480.0 413.0 L 480.0 411.0 L 481.0 410.0 L 481.0 407.0 L 483.0 404.0 L 483.0 400.0 L 484.0 399.0 L 484.0 396.0 L 485.0 395.0 L 485.0 390.0 L 486.0 389.0 L 485.0 387.0 L 484.0 387.0 L 481.0 393.0 L 478.0 396.0 L 472.0 409.0 L 468.0 413.0 L 467.0 412.0 L 468.0 410.0 L 468.0 408.0 L 471.0 403.0 L 471.0 401.0 L 473.0 398.0 L 473.0 396.0 L 477.0 389.0 L 477.0 387.0 L 479.0 383.0 L 477.0 382.0 L 477.0 383.0 L 474.0 386.0 L 472.0 390.0 L 469.0 393.0 L 468.0 396.0 L 461.0 404.0 L 459.0 403.0 L 460.0 402.0 L 460.0 400.0 L 466.0 393.0 L 473.0 379.0 L 473.0 377.0 L 472.0 376.0 L 470.0 377.0 L 467.0 380.0 L 464.0 381.0 L 460.0 385.0 L 459.0 385.0 L 458.0 383.0 L 460.0 382.0 L 469.0 373.0 L 469.0 372.0 L 472.0 369.0 L 473.0 369.0 L 473.0 368.0 L 476.0 365.0 L 476.0 364.0 L 478.0 362.0 L 479.0 362.0 Z
M 795.0 355.0 L 796.0 355.0 L 806.0 365.0 L 806.0 366.0 L 812.0 372.0 L 812.0 373.0 L 824.0 385.0 L 826.0 386.0 L 825.0 388.0 L 822.0 387.0 L 814.0 379.0 L 813.0 379.0 L 810.0 376.0 L 807.0 375.0 L 807.0 378.0 L 809.0 382.0 L 811.0 384.0 L 811.0 385.0 L 813.0 387.0 L 813.0 388.0 L 815.0 390.0 L 816.0 393.0 L 819.0 397.0 L 819.0 399.0 L 820.0 400.0 L 819.0 402.0 L 813.0 396.0 L 813.0 395.0 L 807.0 388.0 L 806.0 385.0 L 802.0 381.0 L 801.0 382.0 L 802.0 383.0 L 803.0 388.0 L 806.0 393.0 L 806.0 395.0 L 813.0 408.0 L 811.0 410.0 L 806.0 404.0 L 801.0 394.0 L 799.0 392.0 L 797.0 387.0 L 795.0 386.0 L 795.0 391.0 L 796.0 392.0 L 796.0 396.0 L 797.0 397.0 L 797.0 402.0 L 799.0 406.0 L 799.0 412.0 L 798.0 413.0 L 797.0 413.0 L 795.0 411.0 L 795.0 409.0 L 794.0 408.0 L 794.0 404.0 L 792.0 400.0 L 792.0 397.0 L 791.0 396.0 L 791.0 393.0 L 790.0 392.0 L 790.0 390.0 L 788.0 388.0 L 784.0 380.0 L 779.0 380.0 L 778.0 381.0 L 776.0 385.0 L 775.0 390.0 L 772.0 396.0 L 771.0 397.0 L 769.0 396.0 L 770.0 394.0 L 770.0 390.0 L 771.0 389.0 L 771.0 386.0 L 772.0 385.0 L 772.0 381.0 L 773.0 380.0 L 773.0 377.0 L 774.0 376.0 L 774.0 373.0 L 775.0 372.0 L 775.0 367.0 L 776.0 366.0 L 776.0 361.0 L 777.0 360.0 L 782.0 360.0 L 783.0 359.0 L 785.0 359.0 L 786.0 358.0 L 788.0 358.0 L 789.0 357.0 L 791.0 357.0 Z
M 609.0 315.0 L 613.0 315.0 L 614.0 316.0 L 616.0 316.0 L 620.0 318.0 L 625.0 322.0 L 626.0 322.0 L 635.0 331.0 L 636.0 334.0 L 639.0 338.0 L 639.0 375.0 L 640.0 376.0 L 640.0 378.0 L 639.0 379.0 L 639.0 381.0 L 638.0 382.0 L 638.0 384.0 L 637.0 385.0 L 637.0 387.0 L 635.0 391.0 L 635.0 399.0 L 631.0 402.0 L 629.0 402.0 L 628.0 403.0 L 624.0 403.0 L 623.0 404.0 L 615.0 404.0 L 614.0 403.0 L 606.0 403.0 L 605.0 402.0 L 599.0 402.0 L 598.0 401.0 L 596.0 401.0 L 588.0 397.0 L 582.0 392.0 L 579.0 386.0 L 579.0 384.0 L 578.0 383.0 L 578.0 379.0 L 577.0 378.0 L 578.0 376.0 L 577.0 375.0 L 577.0 372.0 L 578.0 371.0 L 578.0 365.0 L 584.0 353.0 L 584.0 351.0 L 586.0 347.0 L 586.0 344.0 L 587.0 343.0 L 587.0 340.0 L 590.0 334.0 L 592.0 332.0 L 592.0 331.0 L 594.0 330.0 L 594.0 329.0 L 599.0 324.0 L 600.0 324.0 L 600.0 323.0 L 602.0 322.0 L 602.0 321.0 L 604.0 320.0 L 606.0 317.0 L 607.0 317.0 Z
M 671.0 314.0 L 674.0 317.0 L 675.0 317.0 L 677.0 319.0 L 677.0 320.0 L 681.0 323.0 L 681.0 324.0 L 682.0 324.0 L 684.0 326.0 L 684.0 327.0 L 689.0 332.0 L 689.0 333.0 L 691.0 335.0 L 693.0 339.0 L 693.0 341.0 L 694.0 342.0 L 694.0 345.0 L 695.0 346.0 L 695.0 349.0 L 696.0 350.0 L 696.0 352.0 L 699.0 358.0 L 702.0 362.0 L 702.0 364.0 L 703.0 365.0 L 703.0 371.0 L 704.0 372.0 L 704.0 374.0 L 703.0 375.0 L 703.0 381.0 L 702.0 382.0 L 702.0 385.0 L 701.0 386.0 L 701.0 388.0 L 699.0 390.0 L 699.0 391.0 L 693.0 397.0 L 685.0 401.0 L 682.0 401.0 L 681.0 402.0 L 675.0 402.0 L 674.0 403.0 L 667.0 403.0 L 666.0 404.0 L 660.0 404.0 L 659.0 403.0 L 654.0 403.0 L 653.0 402.0 L 651.0 402.0 L 647.0 399.0 L 646.0 390.0 L 644.0 387.0 L 644.0 385.0 L 643.0 384.0 L 643.0 382.0 L 641.0 378.0 L 641.0 341.0 L 642.0 340.0 L 642.0 338.0 L 646.0 330.0 L 654.0 322.0 L 657.0 321.0 L 659.0 319.0 L 660.0 319.0 L 664.0 316.0 L 666.0 316.0 L 667.0 315.0 L 670.0 315.0 Z
M 676.0 313.0 L 681.0 313.0 L 682.0 314.0 L 691.0 315.0 L 692.0 316.0 L 695.0 316.0 L 696.0 317.0 L 696.0 320.0 L 697.0 321.0 L 697.0 326.0 L 698.0 327.0 L 698.0 329.0 L 699.0 330.0 L 699.0 332.0 L 701.0 336.0 L 701.0 339.0 L 702.0 340.0 L 702.0 343.0 L 703.0 344.0 L 704.0 351.0 L 705.0 352.0 L 705.0 354.0 L 707.0 358.0 L 707.0 361.0 L 708.0 362.0 L 708.0 364.0 L 707.0 365.0 L 701.0 357.0 L 697.0 349.0 L 697.0 347.0 L 696.0 346.0 L 696.0 342.0 L 695.0 341.0 L 695.0 339.0 L 694.0 338.0 L 694.0 336.0 L 693.0 334.0 L 687.0 327.0 L 687.0 326.0 L 686.0 326.0 L 681.0 321.0 L 681.0 320.0 L 680.0 320.0 L 675.0 315.0 Z
M 604.0 313.0 L 606.0 315.0 L 599.0 322.0 L 598.0 322.0 L 598.0 323.0 L 588.0 333.0 L 586.0 337.0 L 586.0 339.0 L 585.0 340.0 L 585.0 344.0 L 584.0 345.0 L 584.0 348.0 L 582.0 351.0 L 582.0 353.0 L 580.0 355.0 L 579.0 358.0 L 574.0 364.0 L 573.0 363.0 L 573.0 361.0 L 574.0 360.0 L 574.0 358.0 L 576.0 354.0 L 576.0 351.0 L 577.0 350.0 L 577.0 347.0 L 578.0 346.0 L 578.0 344.0 L 579.0 343.0 L 579.0 341.0 L 580.0 340.0 L 580.0 338.0 L 581.0 337.0 L 581.0 335.0 L 582.0 334.0 L 582.0 332.0 L 584.0 328.0 L 584.0 325.0 L 585.0 324.0 L 585.0 320.0 L 586.0 319.0 L 586.0 317.0 L 587.0 316.0 L 590.0 316.0 L 591.0 315.0 L 594.0 315.0 L 595.0 314.0 L 599.0 314.0 L 600.0 313.0 L 601.0 314.0 L 602.0 313.0 Z
M 588.0 274.0 L 593.0 280.0 L 593.0 281.0 L 596.0 284.0 L 596.0 285.0 L 598.0 287.0 L 601.0 293.0 L 601.0 297.0 L 602.0 298.0 L 602.0 308.0 L 603.0 309.0 L 602.0 311.0 L 600.0 311.0 L 599.0 312.0 L 595.0 312.0 L 594.0 313.0 L 591.0 313.0 L 590.0 314.0 L 587.0 314.0 L 586.0 313.0 L 587.0 312.0 L 587.0 296.0 L 588.0 295.0 L 588.0 285.0 L 587.0 284.0 L 587.0 275.0 Z
M 586.0 274.0 L 587.0 273.0 L 588.0 274.0 L 587.0 275.0 Z
M 694.0 272.0 L 695.0 273.0 L 695.0 276.0 L 694.0 277.0 L 694.0 306.0 L 695.0 307.0 L 695.0 313.0 L 694.0 314.0 L 691.0 314.0 L 690.0 313.0 L 686.0 313.0 L 685.0 312.0 L 681.0 312.0 L 678.0 310.0 L 678.0 301.0 L 679.0 300.0 L 679.0 296.0 L 680.0 295.0 L 680.0 292.0 L 683.0 286.0 L 685.0 284.0 L 687.0 280.0 L 692.0 275.0 L 692.0 274.0 Z
M 643.0 251.0 L 647.0 253.0 L 649.0 255.0 L 652.0 256.0 L 654.0 258.0 L 655.0 258.0 L 659.0 262.0 L 663.0 270.0 L 663.0 275.0 L 664.0 276.0 L 664.0 287.0 L 665.0 288.0 L 666.0 295.0 L 667.0 296.0 L 667.0 298.0 L 670.0 304.0 L 673.0 307.0 L 675.0 311.0 L 674.0 312.0 L 671.0 312.0 L 670.0 313.0 L 668.0 313.0 L 667.0 314.0 L 662.0 315.0 L 658.0 317.0 L 653.0 321.0 L 652.0 321.0 L 646.0 327.0 L 646.0 328.0 L 643.0 331.0 L 642.0 334.0 L 640.0 336.0 L 638.0 332.0 L 634.0 327.0 L 634.0 326.0 L 631.0 323.0 L 630.0 323.0 L 627.0 320.0 L 626.0 320.0 L 621.0 316.0 L 619.0 316.0 L 616.0 314.0 L 614.0 314.0 L 610.0 312.0 L 607.0 312.0 L 606.0 310.0 L 612.0 303.0 L 615.0 297.0 L 615.0 295.0 L 616.0 294.0 L 616.0 291.0 L 617.0 290.0 L 617.0 272.0 L 618.0 271.0 L 618.0 269.0 L 621.0 263.0 L 626.0 258.0 L 636.0 253.0 L 638.0 251.0 Z
M 736.0 234.0 L 738.0 234.0 L 740.0 236.0 L 741.0 238.0 L 741.0 240.0 L 742.0 241.0 L 742.0 249.0 L 743.0 250.0 L 743.0 260.0 L 744.0 261.0 L 744.0 263.0 L 746.0 267.0 L 747.0 268.0 L 750.0 267.0 L 752.0 264.0 L 753.0 259.0 L 755.0 258.0 L 757.0 260.0 L 759.0 265.0 L 761.0 267.0 L 764.0 273.0 L 766.0 275.0 L 768.0 279.0 L 768.0 281.0 L 773.0 290.0 L 773.0 292.0 L 778.0 302.0 L 778.0 304.0 L 780.0 307.0 L 780.0 309.0 L 781.0 310.0 L 781.0 312.0 L 783.0 316.0 L 783.0 319.0 L 785.0 323.0 L 785.0 326.0 L 786.0 327.0 L 787.0 334.0 L 788.0 335.0 L 788.0 337.0 L 789.0 338.0 L 789.0 340.0 L 790.0 341.0 L 791.0 346.0 L 795.0 353.0 L 790.0 356.0 L 788.0 356.0 L 784.0 358.0 L 777.0 358.0 L 775.0 356.0 L 774.0 354.0 L 774.0 352.0 L 773.0 351.0 L 773.0 349.0 L 770.0 343.0 L 768.0 341.0 L 767.0 338.0 L 763.0 333.0 L 758.0 323.0 L 756.0 321.0 L 756.0 320.0 L 754.0 318.0 L 752.0 314.0 L 749.0 311.0 L 749.0 310.0 L 745.0 306.0 L 743.0 302.0 L 740.0 299.0 L 737.0 293.0 L 737.0 291.0 L 734.0 286.0 L 734.0 284.0 L 732.0 280.0 L 732.0 277.0 L 731.0 276.0 L 731.0 271.0 L 730.0 270.0 L 732.0 268.0 L 738.0 268.0 L 740.0 267.0 L 740.0 260.0 L 739.0 259.0 L 738.0 252.0 L 737.0 251.0 L 737.0 249.0 L 736.0 248.0 L 736.0 245.0 L 735.0 244.0 L 735.0 241.0 L 734.0 240.0 L 734.0 238.0 Z
M 543.0 233.0 L 546.0 237.0 L 546.0 245.0 L 545.0 246.0 L 545.0 248.0 L 543.0 251.0 L 543.0 254.0 L 542.0 255.0 L 542.0 259.0 L 541.0 260.0 L 541.0 267.0 L 543.0 268.0 L 549.0 268.0 L 550.0 269.0 L 550.0 276.0 L 549.0 277.0 L 549.0 281.0 L 548.0 282.0 L 548.0 284.0 L 546.0 286.0 L 546.0 288.0 L 544.0 291.0 L 544.0 293.0 L 541.0 299.0 L 538.0 302.0 L 538.0 303.0 L 529.0 314.0 L 529.0 315.0 L 525.0 320.0 L 524.0 323.0 L 516.0 334.0 L 512.0 343.0 L 509.0 347.0 L 509.0 349.0 L 507.0 352.0 L 507.0 354.0 L 505.0 358.0 L 504.0 359.0 L 495.0 359.0 L 494.0 358.0 L 490.0 358.0 L 485.0 355.0 L 487.0 352.0 L 487.0 350.0 L 490.0 345.0 L 491.0 340.0 L 493.0 337.0 L 494.0 330.0 L 496.0 326.0 L 497.0 319.0 L 499.0 315.0 L 499.0 312.0 L 500.0 311.0 L 500.0 309.0 L 501.0 308.0 L 501.0 306.0 L 502.0 305.0 L 503.0 300.0 L 506.0 295.0 L 506.0 293.0 L 515.0 275.0 L 517.0 273.0 L 518.0 270.0 L 521.0 267.0 L 525.0 259.0 L 526.0 258.0 L 528.0 260.0 L 528.0 263.0 L 531.0 268.0 L 533.0 269.0 L 535.0 267.0 L 535.0 265.0 L 537.0 262.0 L 537.0 259.0 L 538.0 258.0 L 538.0 249.0 L 539.0 248.0 L 539.0 240.0 L 541.0 237.0 L 541.0 235.0 Z
M 668.0 202.0 L 672.0 202.0 L 673.0 203.0 L 675.0 203.0 L 685.0 209.0 L 687.0 209.0 L 688.0 210.0 L 691.0 210.0 L 692.0 211.0 L 696.0 211.0 L 697.0 210.0 L 700.0 210.0 L 704.0 207.0 L 706.0 208.0 L 705.0 209.0 L 705.0 215.0 L 704.0 216.0 L 705.0 218.0 L 704.0 219.0 L 704.0 226.0 L 703.0 227.0 L 703.0 233.0 L 702.0 234.0 L 702.0 241.0 L 701.0 242.0 L 701.0 251.0 L 700.0 252.0 L 700.0 257.0 L 694.0 269.0 L 692.0 271.0 L 692.0 272.0 L 686.0 278.0 L 685.0 281.0 L 681.0 286.0 L 679.0 290.0 L 679.0 292.0 L 678.0 293.0 L 678.0 296.0 L 677.0 297.0 L 677.0 305.0 L 675.0 307.0 L 672.0 303.0 L 668.0 295.0 L 668.0 293.0 L 667.0 292.0 L 667.0 289.0 L 666.0 288.0 L 666.0 274.0 L 665.0 273.0 L 665.0 270.0 L 664.0 269.0 L 664.0 267.0 L 661.0 261.0 L 655.0 255.0 L 646.0 251.0 L 644.0 249.0 L 646.0 245.0 L 646.0 243.0 L 650.0 235.0 L 652.0 233.0 L 655.0 226.0 L 657.0 224.0 L 659.0 219.0 L 661.0 217.0 L 662.0 214.0 L 664.0 212.0 L 666.0 208.0 L 667.0 203.0 Z
M 612.0 202.0 L 614.0 205.0 L 614.0 207.0 L 615.0 208.0 L 615.0 210.0 L 616.0 212.0 L 618.0 214.0 L 619.0 217.0 L 622.0 220.0 L 627.0 230.0 L 629.0 232.0 L 630.0 234.0 L 630.0 236.0 L 633.0 240.0 L 637.0 249.0 L 632.0 253.0 L 624.0 257.0 L 620.0 261.0 L 617.0 267.0 L 616.0 272.0 L 615.0 273.0 L 615.0 290.0 L 614.0 291.0 L 614.0 294.0 L 613.0 295.0 L 613.0 297.0 L 612.0 299.0 L 610.0 301.0 L 608.0 305.0 L 605.0 308.0 L 604.0 307.0 L 604.0 298.0 L 603.0 297.0 L 603.0 293.0 L 602.0 292.0 L 602.0 290.0 L 600.0 286.0 L 596.0 281.0 L 596.0 280.0 L 589.0 272.0 L 587.0 267.0 L 584.0 264.0 L 584.0 262.0 L 581.0 257.0 L 581.0 248.0 L 580.0 247.0 L 580.0 239.0 L 579.0 238.0 L 579.0 231.0 L 578.0 230.0 L 578.0 226.0 L 577.0 225.0 L 577.0 213.0 L 576.0 212.0 L 576.0 209.0 L 577.0 208.0 L 583.0 211.0 L 591.0 211.0 L 592.0 210.0 L 594.0 210.0 L 595.0 209.0 L 597.0 209.0 L 601.0 207.0 L 603.0 205.0 L 604.0 205.0 L 608.0 202.0 Z
M 569.0 188.0 L 570.0 189.0 L 570.0 193.0 L 571.0 194.0 L 571.0 199.0 L 572.0 200.0 L 572.0 202.0 L 573.0 203.0 L 573.0 206.0 L 574.0 207.0 L 574.0 211.0 L 575.0 212.0 L 575.0 217.0 L 574.0 218.0 L 574.0 221.0 L 573.0 222.0 L 573.0 226.0 L 571.0 230.0 L 571.0 233.0 L 570.0 234.0 L 570.0 236.0 L 569.0 237.0 L 568.0 242.0 L 563.0 252.0 L 558.0 258.0 L 558.0 259.0 L 555.0 262.0 L 555.0 263.0 L 551.0 266.0 L 544.0 266.0 L 543.0 265.0 L 543.0 259.0 L 544.0 258.0 L 545.0 251.0 L 546.0 250.0 L 546.0 248.0 L 547.0 247.0 L 547.0 244.0 L 548.0 243.0 L 548.0 236.0 L 545.0 232.0 L 541.0 232.0 L 539.0 235.0 L 539.0 237.0 L 537.0 241.0 L 537.0 252.0 L 536.0 253.0 L 536.0 258.0 L 535.0 259.0 L 534.0 264.0 L 532.0 265.0 L 530.0 263.0 L 530.0 261.0 L 529.0 260.0 L 529.0 256.0 L 528.0 255.0 L 528.0 247.0 L 529.0 246.0 L 529.0 242.0 L 530.0 241.0 L 531.0 234.0 L 533.0 231.0 L 533.0 229.0 L 534.0 228.0 L 534.0 226.0 L 535.0 225.0 L 536.0 220.0 L 538.0 217.0 L 538.0 215.0 L 540.0 212.0 L 540.0 210.0 L 543.0 204.0 L 546.0 201.0 L 546.0 200.0 L 549.0 196.0 L 550.0 196.0 L 552.0 194.0 L 556.0 192.0 L 558.0 192.0 L 561.0 190.0 L 563.0 190.0 L 564.0 189.0 Z
M 712.0 187.0 L 713.0 188.0 L 718.0 189.0 L 721.0 191.0 L 723.0 191.0 L 727.0 193.0 L 729.0 195.0 L 730.0 195.0 L 735.0 200.0 L 735.0 201.0 L 737.0 203.0 L 739.0 207.0 L 739.0 209.0 L 741.0 211.0 L 744.0 217.0 L 744.0 219.0 L 746.0 222.0 L 746.0 224.0 L 749.0 230.0 L 749.0 233.0 L 751.0 237.0 L 751.0 240.0 L 752.0 241.0 L 752.0 245.0 L 753.0 246.0 L 753.0 253.0 L 752.0 254.0 L 751.0 261.0 L 749.0 265.0 L 748.0 265.0 L 746.0 263.0 L 746.0 261.0 L 745.0 260.0 L 745.0 251.0 L 744.0 250.0 L 744.0 242.0 L 743.0 241.0 L 743.0 238.0 L 740.0 232.0 L 735.0 232.0 L 733.0 235.0 L 733.0 243.0 L 734.0 244.0 L 734.0 247.0 L 736.0 251.0 L 736.0 254.0 L 737.0 255.0 L 737.0 259.0 L 738.0 260.0 L 738.0 264.0 L 736.0 266.0 L 731.0 266.0 L 727.0 263.0 L 727.0 262.0 L 723.0 258.0 L 722.0 255.0 L 717.0 249.0 L 712.0 239.0 L 712.0 237.0 L 711.0 236.0 L 711.0 233.0 L 710.0 232.0 L 710.0 229.0 L 709.0 228.0 L 709.0 225.0 L 707.0 221.0 L 707.0 217.0 L 706.0 216.0 L 706.0 214.0 L 707.0 213.0 L 707.0 207.0 L 708.0 206.0 L 708.0 202.0 L 710.0 198.0 L 710.0 193.0 L 711.0 192.0 L 711.0 188.0 Z
M 679.0 153.0 L 680.0 153.0 L 692.0 165.0 L 697.0 167.0 L 699.0 169.0 L 701.0 169.0 L 703.0 170.0 L 709.0 176.0 L 709.0 178.0 L 710.0 179.0 L 710.0 184.0 L 709.0 185.0 L 710.0 187.0 L 709.0 188.0 L 709.0 193.0 L 708.0 194.0 L 708.0 198.0 L 705.0 204.0 L 703.0 206.0 L 702.0 206.0 L 698.0 209.0 L 693.0 209.0 L 692.0 208.0 L 689.0 208.0 L 686.0 206.0 L 684.0 206.0 L 682.0 204.0 L 676.0 201.0 L 673.0 201.0 L 672.0 200.0 L 669.0 200.0 L 668.0 199.0 L 668.0 188.0 L 669.0 187.0 L 669.0 179.0 L 670.0 178.0 L 670.0 174.0 L 671.0 173.0 L 671.0 170.0 L 672.0 169.0 L 672.0 166.0 L 673.0 165.0 L 674.0 160.0 L 676.0 158.0 L 677.0 155.0 Z
M 601.0 153.0 L 605.0 157.0 L 608.0 163.0 L 608.0 165.0 L 609.0 166.0 L 609.0 169.0 L 610.0 170.0 L 610.0 174.0 L 611.0 175.0 L 611.0 183.0 L 612.0 184.0 L 612.0 199.0 L 611.0 200.0 L 606.0 201.0 L 603.0 203.0 L 601.0 203.0 L 599.0 205.0 L 595.0 207.0 L 593.0 207.0 L 592.0 208.0 L 589.0 208.0 L 588.0 209.0 L 583.0 209.0 L 579.0 206.0 L 578.0 206.0 L 574.0 202.0 L 574.0 200.0 L 573.0 199.0 L 573.0 195.0 L 572.0 194.0 L 572.0 189.0 L 571.0 188.0 L 571.0 183.0 L 572.0 182.0 L 572.0 178.0 L 574.0 174.0 L 576.0 172.0 L 588.0 166.0 L 591.0 163.0 L 592.0 163.0 L 594.0 161.0 L 594.0 160.0 Z
M 683.0 147.0 L 685.0 145.0 L 700.0 145.0 L 701.0 146.0 L 706.0 146.0 L 707.0 147.0 L 709.0 147.0 L 710.0 148.0 L 715.0 149.0 L 721.0 152.0 L 723.0 154.0 L 724.0 154.0 L 732.0 162.0 L 733.0 165.0 L 735.0 167.0 L 735.0 169.0 L 737.0 173.0 L 737.0 177.0 L 738.0 178.0 L 738.0 198.0 L 737.0 199.0 L 729.0 191.0 L 727.0 190.0 L 725.0 190.0 L 724.0 189.0 L 722.0 189.0 L 721.0 188.0 L 719.0 188.0 L 718.0 187.0 L 713.0 186.0 L 712.0 185.0 L 712.0 180.0 L 711.0 179.0 L 711.0 176.0 L 709.0 172.0 L 705.0 169.0 L 693.0 163.0 L 681.0 151.0 Z
M 596.0 145.0 L 598.0 149.0 L 600.0 151.0 L 593.0 158.0 L 593.0 159.0 L 590.0 162.0 L 582.0 166.0 L 580.0 168.0 L 578.0 168.0 L 576.0 169.0 L 572.0 173.0 L 570.0 177.0 L 570.0 182.0 L 569.0 183.0 L 569.0 185.0 L 563.0 188.0 L 558.0 189.0 L 550.0 193.0 L 544.0 199.0 L 543.0 198.0 L 543.0 179.0 L 544.0 178.0 L 544.0 174.0 L 545.0 173.0 L 545.0 170.0 L 549.0 162.0 L 558.0 153.0 L 562.0 151.0 L 564.0 151.0 L 567.0 149.0 L 569.0 149.0 L 570.0 148.0 L 572.0 148.0 L 576.0 146.0 L 584.0 146.0 L 585.0 145.0 Z
M 603.0 141.0 L 604.0 140.0 L 605.0 141.0 L 604.0 142.0 Z
M 639.0 133.0 L 642.0 133.0 L 643.0 134.0 L 645.0 134.0 L 646.0 135.0 L 648.0 135.0 L 652.0 137.0 L 655.0 137.0 L 656.0 138.0 L 658.0 138.0 L 662.0 140.0 L 665.0 140.0 L 666.0 141.0 L 669.0 141.0 L 670.0 142.0 L 673.0 142.0 L 674.0 143.0 L 677.0 143.0 L 678.0 144.0 L 681.0 144.0 L 682.0 145.0 L 682.0 146.0 L 678.0 150.0 L 677.0 153.0 L 675.0 155.0 L 674.0 158.0 L 672.0 160.0 L 672.0 162.0 L 671.0 163.0 L 671.0 166.0 L 669.0 170.0 L 669.0 175.0 L 668.0 176.0 L 668.0 180.0 L 667.0 181.0 L 667.0 188.0 L 666.0 189.0 L 666.0 203.0 L 665.0 204.0 L 665.0 206.0 L 662.0 212.0 L 660.0 214.0 L 659.0 217.0 L 653.0 225.0 L 653.0 227.0 L 651.0 229.0 L 648.0 236.0 L 646.0 238.0 L 646.0 240.0 L 642.0 248.0 L 640.0 248.0 L 637.0 245.0 L 630.0 230.0 L 628.0 228.0 L 628.0 226.0 L 624.0 221.0 L 621.0 214.0 L 619.0 212.0 L 615.0 204.0 L 615.0 201.0 L 614.0 200.0 L 614.0 185.0 L 613.0 184.0 L 613.0 176.0 L 612.0 175.0 L 612.0 171.0 L 611.0 170.0 L 611.0 166.0 L 610.0 165.0 L 610.0 162.0 L 606.0 154.0 L 599.0 146.0 L 600.0 144.0 L 603.0 144.0 L 604.0 143.0 L 607.0 143.0 L 611.0 141.0 L 614.0 141.0 L 615.0 140.0 L 622.0 139.0 L 623.0 138.0 L 625.0 138.0 L 626.0 137.0 L 628.0 137.0 L 632.0 135.0 L 635.0 135.0 Z
M 639.0 117.0 L 639.0 131.0 L 636.0 133.0 L 633.0 133.0 L 632.0 134.0 L 630.0 134.0 L 629.0 135.0 L 627.0 135.0 L 623.0 137.0 L 620.0 137.0 L 619.0 138.0 L 612.0 139.0 L 608.0 141.0 L 605.0 141.0 L 604.0 140.0 L 606.0 139.0 L 610.0 135.0 L 611.0 135.0 L 621.0 125.0 L 621.0 124.0 L 624.0 121.0 L 625.0 118.0 L 628.0 114.0 L 630.0 114.0 L 631.0 115.0 L 635.0 115.0 Z
M 641.0 116.0 L 642.0 115.0 L 645.0 115.0 L 646.0 114.0 L 649.0 114.0 L 650.0 113.0 L 652.0 113.0 L 656.0 118.0 L 659.0 124.0 L 663.0 128.0 L 663.0 129.0 L 667.0 133.0 L 667.0 134.0 L 671.0 137.0 L 672.0 137.0 L 675.0 140.0 L 673.0 141.0 L 672.0 140.0 L 665.0 139.0 L 661.0 137.0 L 654.0 136.0 L 653.0 135.0 L 651.0 135.0 L 650.0 134.0 L 648.0 134.0 L 647.0 133.0 L 642.0 132.0 L 641.0 131.0 Z
M 620.0 106.0 L 626.0 113.0 L 625.0 116.0 L 622.0 120.0 L 621.0 119.0 L 621.0 114.0 L 620.0 113.0 L 620.0 110.0 L 619.0 109.0 L 619.0 107.0 Z
M 618.0 106.0 L 619.0 105.0 L 620.0 106.0 L 619.0 107.0 Z
M 617.0 104.0 L 618.0 103.0 L 619.0 105.0 L 618.0 106.0 Z
M 616.0 103.0 L 617.0 102.0 L 618.0 103.0 L 617.0 104.0 Z
M 664.0 100.0 L 665.0 101.0 L 665.0 103.0 L 661.0 110.0 L 661.0 115.0 L 659.0 119.0 L 657.0 117.0 L 655.0 112.0 L 659.0 108.0 L 659.0 107.0 L 661.0 105.0 L 661.0 104.0 Z
M 615.0 101.0 L 616.0 100.0 L 617.0 101.0 L 616.0 102.0 Z
M 664.0 99.0 L 665.0 98.0 L 666.0 100.0 L 665.0 101.0 Z
M 634.0 44.0 L 647.0 44.0 L 653.0 47.0 L 655.0 47.0 L 658.0 50.0 L 659.0 50.0 L 664.0 56.0 L 665.0 58.0 L 665.0 60.0 L 666.0 61.0 L 666.0 65.0 L 667.0 66.0 L 667.0 76.0 L 668.0 77.0 L 668.0 89.0 L 665.0 95.0 L 663.0 97.0 L 662.0 100.0 L 660.0 102.0 L 659.0 105.0 L 653.0 111.0 L 651.0 111.0 L 650.0 112.0 L 647.0 112.0 L 646.0 113.0 L 634.0 113.0 L 631.0 111.0 L 629.0 111.0 L 621.0 104.0 L 618.0 98.0 L 616.0 96.0 L 616.0 94.0 L 614.0 91.0 L 614.0 64.0 L 615.0 63.0 L 615.0 60.0 L 618.0 54.0 L 622.0 50.0 L 623.0 50.0 L 626.0 47.0 L 628.0 46.0 L 630.0 46.0 L 631.0 45.0 L 633.0 45.0 Z"/>
  </g>
</svg>
